ISO-10303-21;
HEADER;
/* Generated by software containing ST-Developer
 * from STEP Tools, Inc. (www.steptools.com) 
 */

FILE_DESCRIPTION(
/* description */ (''),
/* implementation_level */ '2;1');

FILE_NAME(
/* name */ 'RailButton v6.step',
/* time_stamp */ '2026-10-03T23:04:21+05:30',
/* author */ (''),
/* organization */ (''),
/* preprocessor_version */ 'ST-DEVELOPER v20.2',
/* originating_system */ 'Autodesk Translation Framework v15.15.0.0',
/* authorisation */ '');

FILE_SCHEMA (('AUTOMOTIVE_DESIGN { 1 0 10303 214 3 1 1 }'));
ENDSEC;

DATA;
#10=MECHANICAL_DESIGN_GEOMETRIC_PRESENTATION_REPRESENTATION('',(#21,#22),
#1478);
#11=ITEM_DEFINED_TRANSFORMATION($,$,#864,#946);
#12=(
REPRESENTATION_RELATIONSHIP($,$,#1489,#1488)
REPRESENTATION_RELATIONSHIP_WITH_TRANSFORMATION(#11)
SHAPE_REPRESENTATION_RELATIONSHIP()
);
#13=CONTEXT_DEPENDENT_SHAPE_REPRESENTATION(#12,#1487);
#14=NEXT_ASSEMBLY_USAGE_OCCURRENCE(
'Broached Hexagon Socket Head Cap Screw ANSI B18.3.1M - M2x0.4 x 8 Ste
el Grade 2 Plain v1:1',
'Broached Hexagon Socket Head Cap Screw ANSI B18.3.1M - M2x0.4 x 8 Ste
el Grade 2 Plain v1:1',
'Broached Hexagon Socket Head Cap Screw ANSI B18.3.1M - M2x0.4 x 8 Ste
el Grade 2 Plain v1:1',#1491,#1492,
'Broached Hexagon Socket Head Cap Screw ANSI B18.3.1M - M2x0.4 x 8 Ste
el Grade 2 Plain v1:1');
#15=B_SPLINE_CURVE_WITH_KNOTS('',3,(#1277,#1278,#1279,#1280,#1281,#1282,
#1283,#1284,#1285,#1286,#1287,#1288,#1289,#1290,#1291,#1292,#1293,#1294),
 .UNSPECIFIED.,.F.,.F.,(4,2,2,2,2,2,2,2,4),(0.,0.0376716993436081,0.0753433986872162,
0.113027853801693,0.15071230891617,0.188381576183159,0.226050843450148,
0.263721027338889,0.301391211227631),.UNSPECIFIED.);
#16=B_SPLINE_CURVE_WITH_KNOTS('',3,(#1295,#1296,#1297,#1298,#1299,#1300,
#1301,#1302,#1303,#1304,#1305,#1306,#1307,#1308,#1309,#1310,#1311,#1312),
 .UNSPECIFIED.,.F.,.F.,(4,2,2,2,2,2,2,2,4),(0.301391211227631,0.339061395116373,
0.376731579005115,0.414400846272103,0.452070113539092,0.489754568653569,
0.527439023768046,0.565110723111654,0.602782422455262),.UNSPECIFIED.);
#17=SHAPE_REPRESENTATION_RELATIONSHIP('SRR','None',#1489,#19);
#18=SHAPE_REPRESENTATION_RELATIONSHIP('SRR','None',#1488,#20);
#19=ADVANCED_BREP_SHAPE_REPRESENTATION('',(#23),#1477);
#20=ADVANCED_BREP_SHAPE_REPRESENTATION('',(#24),#1476);
#21=STYLED_ITEM('',(#1502),#23);
#22=STYLED_ITEM('',(#1502),#24);
#23=MANIFOLD_SOLID_BREP('Body1',#849);
#24=MANIFOLD_SOLID_BREP('Body1',#850);
#25=CYLINDRICAL_SURFACE('',#873,1.89999999999999);
#26=CYLINDRICAL_SURFACE('',#887,0.96675);
#27=CYLINDRICAL_SURFACE('',#891,1.);
#28=CYLINDRICAL_SURFACE('',#893,2.);
#29=CYLINDRICAL_SURFACE('',#897,32.5);
#30=CYLINDRICAL_SURFACE('',#912,0.2);
#31=CYLINDRICAL_SURFACE('',#915,0.2);
#32=CYLINDRICAL_SURFACE('',#918,0.2);
#33=CYLINDRICAL_SURFACE('',#921,0.2);
#34=CYLINDRICAL_SURFACE('',#925,0.299999999999892);
#35=CYLINDRICAL_SURFACE('',#928,0.300000000000008);
#36=CYLINDRICAL_SURFACE('',#931,0.302777727018332);
#37=CYLINDRICAL_SURFACE('',#937,0.299999999999996);
#38=CYLINDRICAL_SURFACE('',#940,0.300000000000003);
#39=CYLINDRICAL_SURFACE('',#943,0.299999999999999);
#40=FACE_BOUND('',#130,.T.);
#41=FACE_BOUND('',#147,.T.);
#42=FACE_BOUND('',#151,.T.);
#43=FACE_BOUND('',#153,.T.);
#44=FACE_BOUND('',#165,.T.);
#45=PLANE('',#872);
#46=PLANE('',#875);
#47=PLANE('',#876);
#48=PLANE('',#877);
#49=PLANE('',#878);
#50=PLANE('',#879);
#51=PLANE('',#880);
#52=PLANE('',#881);
#53=PLANE('',#882);
#54=PLANE('',#883);
#55=PLANE('',#884);
#56=PLANE('',#885);
#57=PLANE('',#886);
#58=PLANE('',#889);
#59=PLANE('',#890);
#60=PLANE('',#896);
#61=PLANE('',#900);
#62=PLANE('',#901);
#63=PLANE('',#914);
#64=PLANE('',#917);
#65=PLANE('',#920);
#66=PLANE('',#923);
#67=PLANE('',#924);
#68=PLANE('',#927);
#69=PLANE('',#930);
#70=PLANE('',#933);
#71=PLANE('',#934);
#72=PLANE('',#935);
#73=PLANE('',#936);
#74=PLANE('',#939);
#75=PLANE('',#942);
#76=PLANE('',#945);
#77=TOROIDAL_SURFACE('',#868,1.69999999999999,0.2);
#78=FACE_OUTER_BOUND('',#127,.T.);
#79=FACE_OUTER_BOUND('',#128,.T.);
#80=FACE_OUTER_BOUND('',#129,.T.);
#81=FACE_OUTER_BOUND('',#131,.T.);
#82=FACE_OUTER_BOUND('',#132,.T.);
#83=FACE_OUTER_BOUND('',#133,.T.);
#84=FACE_OUTER_BOUND('',#134,.T.);
#85=FACE_OUTER_BOUND('',#135,.T.);
#86=FACE_OUTER_BOUND('',#136,.T.);
#87=FACE_OUTER_BOUND('',#137,.T.);
#88=FACE_OUTER_BOUND('',#138,.T.);
#89=FACE_OUTER_BOUND('',#139,.T.);
#90=FACE_OUTER_BOUND('',#140,.T.);
#91=FACE_OUTER_BOUND('',#141,.T.);
#92=FACE_OUTER_BOUND('',#142,.T.);
#93=FACE_OUTER_BOUND('',#143,.T.);
#94=FACE_OUTER_BOUND('',#144,.T.);
#95=FACE_OUTER_BOUND('',#145,.T.);
#96=FACE_OUTER_BOUND('',#146,.T.);
#97=FACE_OUTER_BOUND('',#148,.T.);
#98=FACE_OUTER_BOUND('',#149,.T.);
#99=FACE_OUTER_BOUND('',#150,.T.);
#100=FACE_OUTER_BOUND('',#152,.T.);
#101=FACE_OUTER_BOUND('',#154,.T.);
#102=FACE_OUTER_BOUND('',#155,.T.);
#103=FACE_OUTER_BOUND('',#156,.T.);
#104=FACE_OUTER_BOUND('',#157,.T.);
#105=FACE_OUTER_BOUND('',#158,.T.);
#106=FACE_OUTER_BOUND('',#159,.T.);
#107=FACE_OUTER_BOUND('',#160,.T.);
#108=FACE_OUTER_BOUND('',#161,.T.);
#109=FACE_OUTER_BOUND('',#162,.T.);
#110=FACE_OUTER_BOUND('',#163,.T.);
#111=FACE_OUTER_BOUND('',#164,.T.);
#112=FACE_OUTER_BOUND('',#166,.T.);
#113=FACE_OUTER_BOUND('',#167,.T.);
#114=FACE_OUTER_BOUND('',#168,.T.);
#115=FACE_OUTER_BOUND('',#169,.T.);
#116=FACE_OUTER_BOUND('',#170,.T.);
#117=FACE_OUTER_BOUND('',#171,.T.);
#118=FACE_OUTER_BOUND('',#172,.T.);
#119=FACE_OUTER_BOUND('',#173,.T.);
#120=FACE_OUTER_BOUND('',#174,.T.);
#121=FACE_OUTER_BOUND('',#175,.T.);
#122=FACE_OUTER_BOUND('',#176,.T.);
#123=FACE_OUTER_BOUND('',#177,.T.);
#124=FACE_OUTER_BOUND('',#178,.T.);
#125=FACE_OUTER_BOUND('',#179,.T.);
#126=FACE_OUTER_BOUND('',#180,.T.);
#127=EDGE_LOOP('',(#567,#568,#569,#570));
#128=EDGE_LOOP('',(#571,#572,#573,#574));
#129=EDGE_LOOP('',(#575));
#130=EDGE_LOOP('',(#576,#577,#578,#579,#580,#581));
#131=EDGE_LOOP('',(#582,#583,#584,#585));
#132=EDGE_LOOP('',(#586,#587,#588));
#133=EDGE_LOOP('',(#589,#590,#591));
#134=EDGE_LOOP('',(#592,#593,#594));
#135=EDGE_LOOP('',(#595,#596,#597));
#136=EDGE_LOOP('',(#598,#599,#600));
#137=EDGE_LOOP('',(#601,#602,#603));
#138=EDGE_LOOP('',(#604,#605,#606,#607));
#139=EDGE_LOOP('',(#608,#609,#610,#611));
#140=EDGE_LOOP('',(#612,#613,#614,#615));
#141=EDGE_LOOP('',(#616,#617,#618,#619));
#142=EDGE_LOOP('',(#620,#621,#622,#623));
#143=EDGE_LOOP('',(#624,#625,#626,#627));
#144=EDGE_LOOP('',(#628,#629,#630,#631));
#145=EDGE_LOOP('',(#632));
#146=EDGE_LOOP('',(#633));
#147=EDGE_LOOP('',(#634));
#148=EDGE_LOOP('',(#635,#636,#637,#638,#639));
#149=EDGE_LOOP('',(#640,#641,#642,#643));
#150=EDGE_LOOP('',(#644));
#151=EDGE_LOOP('',(#645));
#152=EDGE_LOOP('',(#646,#647,#648,#649));
#153=EDGE_LOOP('',(#650,#651));
#154=EDGE_LOOP('',(#652,#653,#654,#655));
#155=EDGE_LOOP('',(#656,#657,#658,#659,#660,#661,#662,#663,#664,#665,#666,
#667,#668,#669,#670,#671,#672,#673,#674,#675,#676,#677,#678,#679,#680));
#156=EDGE_LOOP('',(#681,#682,#683,#684));
#157=EDGE_LOOP('',(#685,#686,#687,#688));
#158=EDGE_LOOP('',(#689,#690,#691,#692));
#159=EDGE_LOOP('',(#693,#694,#695,#696));
#160=EDGE_LOOP('',(#697,#698,#699,#700));
#161=EDGE_LOOP('',(#701,#702,#703,#704));
#162=EDGE_LOOP('',(#705,#706,#707,#708));
#163=EDGE_LOOP('',(#709,#710,#711,#712));
#164=EDGE_LOOP('',(#713,#714,#715,#716));
#165=EDGE_LOOP('',(#717));
#166=EDGE_LOOP('',(#718,#719,#720,#721));
#167=EDGE_LOOP('',(#722,#723,#724,#725));
#168=EDGE_LOOP('',(#726,#727,#728,#729));
#169=EDGE_LOOP('',(#730,#731,#732,#733));
#170=EDGE_LOOP('',(#734,#735,#736,#737));
#171=EDGE_LOOP('',(#738,#739,#740,#741));
#172=EDGE_LOOP('',(#742,#743,#744,#745));
#173=EDGE_LOOP('',(#746,#747,#748,#749));
#174=EDGE_LOOP('',(#750,#751,#752,#753));
#175=EDGE_LOOP('',(#754,#755,#756,#757));
#176=EDGE_LOOP('',(#758,#759,#760,#761));
#177=EDGE_LOOP('',(#762,#763,#764,#765));
#178=EDGE_LOOP('',(#766,#767,#768,#769));
#179=EDGE_LOOP('',(#770,#771,#772,#773));
#180=EDGE_LOOP('',(#774,#775,#776,#777,#778,#779,#780,#781,#782,#783,#784,
#785,#786,#787,#788,#789,#790,#791,#792,#793,#794,#795,#796,#797,#798));
#181=LINE('',#1203,#263);
#182=LINE('',#1214,#264);
#183=LINE('',#1216,#265);
#184=LINE('',#1218,#266);
#185=LINE('',#1220,#267);
#186=LINE('',#1222,#268);
#187=LINE('',#1223,#269);
#188=LINE('',#1227,#270);
#189=LINE('',#1231,#271);
#190=LINE('',#1233,#272);
#191=LINE('',#1234,#273);
#192=LINE('',#1237,#274);
#193=LINE('',#1238,#275);
#194=LINE('',#1241,#276);
#195=LINE('',#1242,#277);
#196=LINE('',#1245,#278);
#197=LINE('',#1246,#279);
#198=LINE('',#1249,#280);
#199=LINE('',#1250,#281);
#200=LINE('',#1252,#282);
#201=LINE('',#1254,#283);
#202=LINE('',#1255,#284);
#203=LINE('',#1257,#285);
#204=LINE('',#1259,#286);
#205=LINE('',#1261,#287);
#206=LINE('',#1263,#288);
#207=LINE('',#1267,#289);
#208=LINE('',#1275,#290);
#209=LINE('',#1317,#291);
#210=LINE('',#1323,#292);
#211=LINE('',#1327,#293);
#212=LINE('',#1331,#294);
#213=LINE('',#1333,#295);
#214=LINE('',#1334,#296);
#215=LINE('',#1337,#297);
#216=LINE('',#1339,#298);
#217=LINE('',#1343,#299);
#218=LINE('',#1347,#300);
#219=LINE('',#1351,#301);
#220=LINE('',#1355,#302);
#221=LINE('',#1359,#303);
#222=LINE('',#1363,#304);
#223=LINE('',#1367,#305);
#224=LINE('',#1371,#306);
#225=LINE('',#1375,#307);
#226=LINE('',#1379,#308);
#227=LINE('',#1380,#309);
#228=LINE('',#1383,#310);
#229=LINE('',#1386,#311);
#230=LINE('',#1389,#312);
#231=LINE('',#1390,#313);
#232=LINE('',#1393,#314);
#233=LINE('',#1396,#315);
#234=LINE('',#1398,#316);
#235=LINE('',#1401,#317);
#236=LINE('',#1404,#318);
#237=LINE('',#1407,#319);
#238=LINE('',#1408,#320);
#239=LINE('',#1411,#321);
#240=LINE('',#1415,#322);
#241=LINE('',#1416,#323);
#242=LINE('',#1419,#324);
#243=LINE('',#1421,#325);
#244=LINE('',#1422,#326);
#245=LINE('',#1426,#327);
#246=LINE('',#1429,#328);
#247=LINE('',#1430,#329);
#248=LINE('',#1434,#330);
#249=LINE('',#1437,#331);
#250=LINE('',#1438,#332);
#251=LINE('',#1443,#333);
#252=LINE('',#1444,#334);
#253=LINE('',#1446,#335);
#254=LINE('',#1448,#336);
#255=LINE('',#1451,#337);
#256=LINE('',#1452,#338);
#257=LINE('',#1456,#339);
#258=LINE('',#1459,#340);
#259=LINE('',#1460,#341);
#260=LINE('',#1464,#342);
#261=LINE('',#1467,#343);
#262=LINE('',#1468,#344);
#263=VECTOR('',#955,0.887310000000008);
#264=VECTOR('',#968,10.);
#265=VECTOR('',#969,10.);
#266=VECTOR('',#970,10.);
#267=VECTOR('',#971,10.);
#268=VECTOR('',#972,10.);
#269=VECTOR('',#973,10.);
#270=VECTOR('',#978,1.89999999999999);
#271=VECTOR('',#981,10.);
#272=VECTOR('',#982,10.);
#273=VECTOR('',#983,10.);
#274=VECTOR('',#986,10.);
#275=VECTOR('',#987,10.);
#276=VECTOR('',#990,10.);
#277=VECTOR('',#991,10.);
#278=VECTOR('',#994,10.);
#279=VECTOR('',#995,10.);
#280=VECTOR('',#998,10.);
#281=VECTOR('',#999,10.);
#282=VECTOR('',#1002,10.);
#283=VECTOR('',#1005,10.);
#284=VECTOR('',#1006,10.);
#285=VECTOR('',#1009,10.);
#286=VECTOR('',#1012,10.);
#287=VECTOR('',#1015,10.);
#288=VECTOR('',#1018,10.);
#289=VECTOR('',#1023,0.999999999999997);
#290=VECTOR('',#1034,1.);
#291=VECTOR('',#1039,2.);
#292=VECTOR('',#1046,10.);
#293=VECTOR('',#1049,10.);
#294=VECTOR('',#1054,10.);
#295=VECTOR('',#1055,10.);
#296=VECTOR('',#1056,10.);
#297=VECTOR('',#1059,10.);
#298=VECTOR('',#1060,10.);
#299=VECTOR('',#1063,10.);
#300=VECTOR('',#1066,10.);
#301=VECTOR('',#1069,10.);
#302=VECTOR('',#1072,10.);
#303=VECTOR('',#1075,10.);
#304=VECTOR('',#1078,10.);
#305=VECTOR('',#1081,10.);
#306=VECTOR('',#1084,10.);
#307=VECTOR('',#1087,10.);
#308=VECTOR('',#1090,10.);
#309=VECTOR('',#1091,10.);
#310=VECTOR('',#1094,10.);
#311=VECTOR('',#1097,10.);
#312=VECTOR('',#1100,10.);
#313=VECTOR('',#1101,10.);
#314=VECTOR('',#1104,10.);
#315=VECTOR('',#1107,10.);
#316=VECTOR('',#1110,10.);
#317=VECTOR('',#1113,10.);
#318=VECTOR('',#1116,10.);
#319=VECTOR('',#1119,10.);
#320=VECTOR('',#1120,10.);
#321=VECTOR('',#1123,10.);
#322=VECTOR('',#1128,10.);
#323=VECTOR('',#1129,10.);
#324=VECTOR('',#1132,10.);
#325=VECTOR('',#1133,10.);
#326=VECTOR('',#1134,10.);
#327=VECTOR('',#1139,10.);
#328=VECTOR('',#1142,10.);
#329=VECTOR('',#1143,10.);
#330=VECTOR('',#1148,10.);
#331=VECTOR('',#1151,10.);
#332=VECTOR('',#1152,10.);
#333=VECTOR('',#1159,10.);
#334=VECTOR('',#1160,10.);
#335=VECTOR('',#1163,10.);
#336=VECTOR('',#1166,10.);
#337=VECTOR('',#1169,10.);
#338=VECTOR('',#1170,10.);
#339=VECTOR('',#1175,10.);
#340=VECTOR('',#1178,10.);
#341=VECTOR('',#1179,10.);
#342=VECTOR('',#1184,10.);
#343=VECTOR('',#1187,10.);
#344=VECTOR('',#1188,10.);
#345=CIRCLE('',#866,0.96675);
#346=CIRCLE('',#867,0.754619999999992);
#347=CIRCLE('',#869,1.89999999999999);
#348=CIRCLE('',#870,0.2);
#349=CIRCLE('',#871,1.69999999999999);
#350=CIRCLE('',#874,1.89999999999999);
#351=CIRCLE('',#888,0.96675);
#352=CIRCLE('',#892,1.);
#353=CIRCLE('',#894,2.);
#354=CIRCLE('',#895,2.);
#355=CIRCLE('',#898,32.5);
#356=CIRCLE('',#899,32.5);
#357=CIRCLE('',#902,0.2);
#358=CIRCLE('',#903,0.2);
#359=CIRCLE('',#904,0.299999999999996);
#360=CIRCLE('',#905,0.300000000000003);
#361=CIRCLE('',#906,0.299999999999999);
#362=CIRCLE('',#907,0.299999999999892);
#363=CIRCLE('',#908,0.300000000000008);
#364=CIRCLE('',#909,0.302777727018332);
#365=CIRCLE('',#910,0.2);
#366=CIRCLE('',#911,0.2);
#367=CIRCLE('',#913,0.2);
#368=CIRCLE('',#916,0.2);
#369=CIRCLE('',#919,0.2);
#370=CIRCLE('',#922,0.2);
#371=CIRCLE('',#926,0.299999999999892);
#372=CIRCLE('',#929,0.300000000000008);
#373=CIRCLE('',#932,0.302777727018332);
#374=CIRCLE('',#938,0.299999999999996);
#375=CIRCLE('',#941,0.300000000000003);
#376=CIRCLE('',#944,0.299999999999999);
#377=VERTEX_POINT('',#1200);
#378=VERTEX_POINT('',#1202);
#379=VERTEX_POINT('',#1206);
#380=VERTEX_POINT('',#1208);
#381=VERTEX_POINT('',#1212);
#382=VERTEX_POINT('',#1213);
#383=VERTEX_POINT('',#1215);
#384=VERTEX_POINT('',#1217);
#385=VERTEX_POINT('',#1219);
#386=VERTEX_POINT('',#1221);
#387=VERTEX_POINT('',#1225);
#388=VERTEX_POINT('',#1229);
#389=VERTEX_POINT('',#1230);
#390=VERTEX_POINT('',#1232);
#391=VERTEX_POINT('',#1236);
#392=VERTEX_POINT('',#1240);
#393=VERTEX_POINT('',#1244);
#394=VERTEX_POINT('',#1248);
#395=VERTEX_POINT('',#1266);
#396=VERTEX_POINT('',#1272);
#397=VERTEX_POINT('',#1274);
#398=VERTEX_POINT('',#1276);
#399=VERTEX_POINT('',#1314);
#400=VERTEX_POINT('',#1316);
#401=VERTEX_POINT('',#1321);
#402=VERTEX_POINT('',#1322);
#403=VERTEX_POINT('',#1324);
#404=VERTEX_POINT('',#1326);
#405=VERTEX_POINT('',#1330);
#406=VERTEX_POINT('',#1332);
#407=VERTEX_POINT('',#1336);
#408=VERTEX_POINT('',#1338);
#409=VERTEX_POINT('',#1340);
#410=VERTEX_POINT('',#1342);
#411=VERTEX_POINT('',#1344);
#412=VERTEX_POINT('',#1346);
#413=VERTEX_POINT('',#1348);
#414=VERTEX_POINT('',#1350);
#415=VERTEX_POINT('',#1352);
#416=VERTEX_POINT('',#1354);
#417=VERTEX_POINT('',#1356);
#418=VERTEX_POINT('',#1358);
#419=VERTEX_POINT('',#1360);
#420=VERTEX_POINT('',#1362);
#421=VERTEX_POINT('',#1364);
#422=VERTEX_POINT('',#1366);
#423=VERTEX_POINT('',#1368);
#424=VERTEX_POINT('',#1370);
#425=VERTEX_POINT('',#1372);
#426=VERTEX_POINT('',#1374);
#427=VERTEX_POINT('',#1376);
#428=VERTEX_POINT('',#1378);
#429=VERTEX_POINT('',#1382);
#430=VERTEX_POINT('',#1384);
#431=VERTEX_POINT('',#1388);
#432=VERTEX_POINT('',#1392);
#433=VERTEX_POINT('',#1394);
#434=VERTEX_POINT('',#1400);
#435=VERTEX_POINT('',#1402);
#436=VERTEX_POINT('',#1406);
#437=VERTEX_POINT('',#1410);
#438=VERTEX_POINT('',#1414);
#439=VERTEX_POINT('',#1418);
#440=VERTEX_POINT('',#1420);
#441=VERTEX_POINT('',#1424);
#442=VERTEX_POINT('',#1428);
#443=VERTEX_POINT('',#1432);
#444=VERTEX_POINT('',#1436);
#445=VERTEX_POINT('',#1442);
#446=VERTEX_POINT('',#1450);
#447=VERTEX_POINT('',#1454);
#448=VERTEX_POINT('',#1458);
#449=VERTEX_POINT('',#1462);
#450=VERTEX_POINT('',#1466);
#451=EDGE_CURVE('',#377,#377,#345,.T.);
#452=EDGE_CURVE('',#377,#378,#181,.T.);
#453=EDGE_CURVE('',#378,#378,#346,.T.);
#454=EDGE_CURVE('',#379,#379,#347,.T.);
#455=EDGE_CURVE('',#379,#380,#348,.T.);
#456=EDGE_CURVE('',#380,#380,#349,.T.);
#457=EDGE_CURVE('',#381,#382,#182,.T.);
#458=EDGE_CURVE('',#382,#383,#183,.T.);
#459=EDGE_CURVE('',#383,#384,#184,.T.);
#460=EDGE_CURVE('',#384,#385,#185,.T.);
#461=EDGE_CURVE('',#385,#386,#186,.T.);
#462=EDGE_CURVE('',#386,#381,#187,.T.);
#463=EDGE_CURVE('',#387,#387,#350,.T.);
#464=EDGE_CURVE('',#387,#379,#188,.T.);
#465=EDGE_CURVE('',#388,#389,#189,.T.);
#466=EDGE_CURVE('',#390,#388,#190,.T.);
#467=EDGE_CURVE('',#390,#389,#191,.T.);
#468=EDGE_CURVE('',#391,#390,#192,.T.);
#469=EDGE_CURVE('',#391,#389,#193,.T.);
#470=EDGE_CURVE('',#392,#391,#194,.T.);
#471=EDGE_CURVE('',#392,#389,#195,.T.);
#472=EDGE_CURVE('',#393,#392,#196,.T.);
#473=EDGE_CURVE('',#393,#389,#197,.T.);
#474=EDGE_CURVE('',#394,#393,#198,.T.);
#475=EDGE_CURVE('',#394,#389,#199,.T.);
#476=EDGE_CURVE('',#388,#394,#200,.T.);
#477=EDGE_CURVE('',#381,#390,#201,.T.);
#478=EDGE_CURVE('',#382,#388,#202,.T.);
#479=EDGE_CURVE('',#386,#391,#203,.T.);
#480=EDGE_CURVE('',#385,#392,#204,.T.);
#481=EDGE_CURVE('',#384,#393,#205,.T.);
#482=EDGE_CURVE('',#383,#394,#206,.T.);
#483=EDGE_CURVE('',#377,#395,#207,.T.);
#484=EDGE_CURVE('',#395,#395,#351,.F.);
#485=EDGE_CURVE('',#396,#396,#352,.T.);
#486=EDGE_CURVE('',#396,#397,#208,.T.);
#487=EDGE_CURVE('',#398,#397,#15,.T.);
#488=EDGE_CURVE('',#397,#398,#16,.T.);
#489=EDGE_CURVE('',#399,#399,#353,.T.);
#490=EDGE_CURVE('',#399,#400,#209,.T.);
#491=EDGE_CURVE('',#400,#400,#354,.T.);
#492=EDGE_CURVE('',#401,#402,#210,.T.);
#493=EDGE_CURVE('',#403,#401,#355,.T.);
#494=EDGE_CURVE('',#404,#403,#211,.T.);
#495=EDGE_CURVE('',#402,#404,#356,.T.);
#496=EDGE_CURVE('',#402,#405,#212,.T.);
#497=EDGE_CURVE('',#405,#406,#213,.T.);
#498=EDGE_CURVE('',#401,#406,#214,.T.);
#499=EDGE_CURVE('',#407,#404,#215,.T.);
#500=EDGE_CURVE('',#408,#407,#216,.T.);
#501=EDGE_CURVE('',#409,#408,#357,.T.);
#502=EDGE_CURVE('',#410,#409,#217,.T.);
#503=EDGE_CURVE('',#411,#410,#358,.T.);
#504=EDGE_CURVE('',#412,#411,#218,.T.);
#505=EDGE_CURVE('',#412,#413,#359,.T.);
#506=EDGE_CURVE('',#414,#413,#219,.T.);
#507=EDGE_CURVE('',#414,#415,#360,.T.);
#508=EDGE_CURVE('',#416,#415,#220,.T.);
#509=EDGE_CURVE('',#416,#417,#361,.T.);
#510=EDGE_CURVE('',#418,#417,#221,.T.);
#511=EDGE_CURVE('',#418,#419,#362,.T.);
#512=EDGE_CURVE('',#420,#419,#222,.T.);
#513=EDGE_CURVE('',#420,#421,#363,.T.);
#514=EDGE_CURVE('',#422,#421,#223,.T.);
#515=EDGE_CURVE('',#422,#423,#364,.T.);
#516=EDGE_CURVE('',#424,#423,#224,.T.);
#517=EDGE_CURVE('',#425,#424,#365,.T.);
#518=EDGE_CURVE('',#426,#425,#225,.T.);
#519=EDGE_CURVE('',#427,#426,#366,.T.);
#520=EDGE_CURVE('',#427,#428,#226,.T.);
#521=EDGE_CURVE('',#428,#405,#227,.T.);
#522=EDGE_CURVE('',#408,#429,#228,.T.);
#523=EDGE_CURVE('',#429,#430,#367,.T.);
#524=EDGE_CURVE('',#430,#409,#229,.T.);
#525=EDGE_CURVE('',#407,#431,#230,.T.);
#526=EDGE_CURVE('',#429,#431,#231,.T.);
#527=EDGE_CURVE('',#410,#432,#232,.T.);
#528=EDGE_CURVE('',#432,#433,#368,.T.);
#529=EDGE_CURVE('',#433,#411,#233,.T.);
#530=EDGE_CURVE('',#432,#430,#234,.T.);
#531=EDGE_CURVE('',#426,#434,#235,.T.);
#532=EDGE_CURVE('',#434,#435,#369,.T.);
#533=EDGE_CURVE('',#435,#427,#236,.T.);
#534=EDGE_CURVE('',#436,#425,#237,.T.);
#535=EDGE_CURVE('',#434,#436,#238,.T.);
#536=EDGE_CURVE('',#424,#437,#239,.T.);
#537=EDGE_CURVE('',#437,#436,#370,.T.);
#538=EDGE_CURVE('',#423,#438,#240,.T.);
#539=EDGE_CURVE('',#437,#438,#241,.T.);
#540=EDGE_CURVE('',#417,#439,#242,.T.);
#541=EDGE_CURVE('',#440,#439,#243,.T.);
#542=EDGE_CURVE('',#418,#440,#244,.T.);
#543=EDGE_CURVE('',#441,#440,#371,.T.);
#544=EDGE_CURVE('',#419,#441,#245,.T.);
#545=EDGE_CURVE('',#442,#441,#246,.T.);
#546=EDGE_CURVE('',#420,#442,#247,.T.);
#547=EDGE_CURVE('',#443,#442,#372,.T.);
#548=EDGE_CURVE('',#421,#443,#248,.T.);
#549=EDGE_CURVE('',#444,#443,#249,.T.);
#550=EDGE_CURVE('',#422,#444,#250,.T.);
#551=EDGE_CURVE('',#438,#444,#373,.T.);
#552=EDGE_CURVE('',#445,#435,#251,.T.);
#553=EDGE_CURVE('',#428,#445,#252,.T.);
#554=EDGE_CURVE('',#406,#445,#253,.T.);
#555=EDGE_CURVE('',#431,#403,#254,.T.);
#556=EDGE_CURVE('',#446,#433,#255,.T.);
#557=EDGE_CURVE('',#412,#446,#256,.T.);
#558=EDGE_CURVE('',#447,#446,#374,.T.);
#559=EDGE_CURVE('',#413,#447,#257,.T.);
#560=EDGE_CURVE('',#448,#447,#258,.T.);
#561=EDGE_CURVE('',#414,#448,#259,.T.);
#562=EDGE_CURVE('',#449,#448,#375,.T.);
#563=EDGE_CURVE('',#415,#449,#260,.T.);
#564=EDGE_CURVE('',#450,#449,#261,.T.);
#565=EDGE_CURVE('',#416,#450,#262,.T.);
#566=EDGE_CURVE('',#439,#450,#376,.T.);
#567=ORIENTED_EDGE('',*,*,#451,.F.);
#568=ORIENTED_EDGE('',*,*,#452,.T.);
#569=ORIENTED_EDGE('',*,*,#453,.F.);
#570=ORIENTED_EDGE('',*,*,#452,.F.);
#571=ORIENTED_EDGE('',*,*,#454,.T.);
#572=ORIENTED_EDGE('',*,*,#455,.T.);
#573=ORIENTED_EDGE('',*,*,#456,.T.);
#574=ORIENTED_EDGE('',*,*,#455,.F.);
#575=ORIENTED_EDGE('',*,*,#456,.F.);
#576=ORIENTED_EDGE('',*,*,#457,.T.);
#577=ORIENTED_EDGE('',*,*,#458,.T.);
#578=ORIENTED_EDGE('',*,*,#459,.T.);
#579=ORIENTED_EDGE('',*,*,#460,.T.);
#580=ORIENTED_EDGE('',*,*,#461,.T.);
#581=ORIENTED_EDGE('',*,*,#462,.T.);
#582=ORIENTED_EDGE('',*,*,#463,.F.);
#583=ORIENTED_EDGE('',*,*,#464,.T.);
#584=ORIENTED_EDGE('',*,*,#454,.F.);
#585=ORIENTED_EDGE('',*,*,#464,.F.);
#586=ORIENTED_EDGE('',*,*,#465,.F.);
#587=ORIENTED_EDGE('',*,*,#466,.F.);
#588=ORIENTED_EDGE('',*,*,#467,.T.);
#589=ORIENTED_EDGE('',*,*,#467,.F.);
#590=ORIENTED_EDGE('',*,*,#468,.F.);
#591=ORIENTED_EDGE('',*,*,#469,.T.);
#592=ORIENTED_EDGE('',*,*,#469,.F.);
#593=ORIENTED_EDGE('',*,*,#470,.F.);
#594=ORIENTED_EDGE('',*,*,#471,.T.);
#595=ORIENTED_EDGE('',*,*,#471,.F.);
#596=ORIENTED_EDGE('',*,*,#472,.F.);
#597=ORIENTED_EDGE('',*,*,#473,.T.);
#598=ORIENTED_EDGE('',*,*,#473,.F.);
#599=ORIENTED_EDGE('',*,*,#474,.F.);
#600=ORIENTED_EDGE('',*,*,#475,.T.);
#601=ORIENTED_EDGE('',*,*,#475,.F.);
#602=ORIENTED_EDGE('',*,*,#476,.F.);
#603=ORIENTED_EDGE('',*,*,#465,.T.);
#604=ORIENTED_EDGE('',*,*,#457,.F.);
#605=ORIENTED_EDGE('',*,*,#477,.T.);
#606=ORIENTED_EDGE('',*,*,#466,.T.);
#607=ORIENTED_EDGE('',*,*,#478,.F.);
#608=ORIENTED_EDGE('',*,*,#462,.F.);
#609=ORIENTED_EDGE('',*,*,#479,.T.);
#610=ORIENTED_EDGE('',*,*,#468,.T.);
#611=ORIENTED_EDGE('',*,*,#477,.F.);
#612=ORIENTED_EDGE('',*,*,#461,.F.);
#613=ORIENTED_EDGE('',*,*,#480,.T.);
#614=ORIENTED_EDGE('',*,*,#470,.T.);
#615=ORIENTED_EDGE('',*,*,#479,.F.);
#616=ORIENTED_EDGE('',*,*,#460,.F.);
#617=ORIENTED_EDGE('',*,*,#481,.T.);
#618=ORIENTED_EDGE('',*,*,#472,.T.);
#619=ORIENTED_EDGE('',*,*,#480,.F.);
#620=ORIENTED_EDGE('',*,*,#459,.F.);
#621=ORIENTED_EDGE('',*,*,#482,.T.);
#622=ORIENTED_EDGE('',*,*,#474,.T.);
#623=ORIENTED_EDGE('',*,*,#481,.F.);
#624=ORIENTED_EDGE('',*,*,#458,.F.);
#625=ORIENTED_EDGE('',*,*,#478,.T.);
#626=ORIENTED_EDGE('',*,*,#476,.T.);
#627=ORIENTED_EDGE('',*,*,#482,.F.);
#628=ORIENTED_EDGE('',*,*,#451,.T.);
#629=ORIENTED_EDGE('',*,*,#483,.T.);
#630=ORIENTED_EDGE('',*,*,#484,.T.);
#631=ORIENTED_EDGE('',*,*,#483,.F.);
#632=ORIENTED_EDGE('',*,*,#453,.T.);
#633=ORIENTED_EDGE('',*,*,#463,.T.);
#634=ORIENTED_EDGE('',*,*,#484,.F.);
#635=ORIENTED_EDGE('',*,*,#485,.F.);
#636=ORIENTED_EDGE('',*,*,#486,.T.);
#637=ORIENTED_EDGE('',*,*,#487,.F.);
#638=ORIENTED_EDGE('',*,*,#488,.F.);
#639=ORIENTED_EDGE('',*,*,#486,.F.);
#640=ORIENTED_EDGE('',*,*,#489,.F.);
#641=ORIENTED_EDGE('',*,*,#490,.T.);
#642=ORIENTED_EDGE('',*,*,#491,.T.);
#643=ORIENTED_EDGE('',*,*,#490,.F.);
#644=ORIENTED_EDGE('',*,*,#491,.F.);
#645=ORIENTED_EDGE('',*,*,#485,.T.);
#646=ORIENTED_EDGE('',*,*,#492,.F.);
#647=ORIENTED_EDGE('',*,*,#493,.F.);
#648=ORIENTED_EDGE('',*,*,#494,.F.);
#649=ORIENTED_EDGE('',*,*,#495,.F.);
#650=ORIENTED_EDGE('',*,*,#487,.T.);
#651=ORIENTED_EDGE('',*,*,#488,.T.);
#652=ORIENTED_EDGE('',*,*,#492,.T.);
#653=ORIENTED_EDGE('',*,*,#496,.T.);
#654=ORIENTED_EDGE('',*,*,#497,.T.);
#655=ORIENTED_EDGE('',*,*,#498,.F.);
#656=ORIENTED_EDGE('',*,*,#495,.T.);
#657=ORIENTED_EDGE('',*,*,#499,.F.);
#658=ORIENTED_EDGE('',*,*,#500,.F.);
#659=ORIENTED_EDGE('',*,*,#501,.F.);
#660=ORIENTED_EDGE('',*,*,#502,.F.);
#661=ORIENTED_EDGE('',*,*,#503,.F.);
#662=ORIENTED_EDGE('',*,*,#504,.F.);
#663=ORIENTED_EDGE('',*,*,#505,.T.);
#664=ORIENTED_EDGE('',*,*,#506,.F.);
#665=ORIENTED_EDGE('',*,*,#507,.T.);
#666=ORIENTED_EDGE('',*,*,#508,.F.);
#667=ORIENTED_EDGE('',*,*,#509,.T.);
#668=ORIENTED_EDGE('',*,*,#510,.F.);
#669=ORIENTED_EDGE('',*,*,#511,.T.);
#670=ORIENTED_EDGE('',*,*,#512,.F.);
#671=ORIENTED_EDGE('',*,*,#513,.T.);
#672=ORIENTED_EDGE('',*,*,#514,.F.);
#673=ORIENTED_EDGE('',*,*,#515,.T.);
#674=ORIENTED_EDGE('',*,*,#516,.F.);
#675=ORIENTED_EDGE('',*,*,#517,.F.);
#676=ORIENTED_EDGE('',*,*,#518,.F.);
#677=ORIENTED_EDGE('',*,*,#519,.F.);
#678=ORIENTED_EDGE('',*,*,#520,.T.);
#679=ORIENTED_EDGE('',*,*,#521,.T.);
#680=ORIENTED_EDGE('',*,*,#496,.F.);
#681=ORIENTED_EDGE('',*,*,#501,.T.);
#682=ORIENTED_EDGE('',*,*,#522,.T.);
#683=ORIENTED_EDGE('',*,*,#523,.T.);
#684=ORIENTED_EDGE('',*,*,#524,.T.);
#685=ORIENTED_EDGE('',*,*,#522,.F.);
#686=ORIENTED_EDGE('',*,*,#500,.T.);
#687=ORIENTED_EDGE('',*,*,#525,.T.);
#688=ORIENTED_EDGE('',*,*,#526,.F.);
#689=ORIENTED_EDGE('',*,*,#503,.T.);
#690=ORIENTED_EDGE('',*,*,#527,.T.);
#691=ORIENTED_EDGE('',*,*,#528,.T.);
#692=ORIENTED_EDGE('',*,*,#529,.T.);
#693=ORIENTED_EDGE('',*,*,#524,.F.);
#694=ORIENTED_EDGE('',*,*,#530,.F.);
#695=ORIENTED_EDGE('',*,*,#527,.F.);
#696=ORIENTED_EDGE('',*,*,#502,.T.);
#697=ORIENTED_EDGE('',*,*,#519,.T.);
#698=ORIENTED_EDGE('',*,*,#531,.T.);
#699=ORIENTED_EDGE('',*,*,#532,.T.);
#700=ORIENTED_EDGE('',*,*,#533,.T.);
#701=ORIENTED_EDGE('',*,*,#531,.F.);
#702=ORIENTED_EDGE('',*,*,#518,.T.);
#703=ORIENTED_EDGE('',*,*,#534,.F.);
#704=ORIENTED_EDGE('',*,*,#535,.F.);
#705=ORIENTED_EDGE('',*,*,#517,.T.);
#706=ORIENTED_EDGE('',*,*,#536,.T.);
#707=ORIENTED_EDGE('',*,*,#537,.T.);
#708=ORIENTED_EDGE('',*,*,#534,.T.);
#709=ORIENTED_EDGE('',*,*,#536,.F.);
#710=ORIENTED_EDGE('',*,*,#516,.T.);
#711=ORIENTED_EDGE('',*,*,#538,.T.);
#712=ORIENTED_EDGE('',*,*,#539,.F.);
#713=ORIENTED_EDGE('',*,*,#510,.T.);
#714=ORIENTED_EDGE('',*,*,#540,.T.);
#715=ORIENTED_EDGE('',*,*,#541,.F.);
#716=ORIENTED_EDGE('',*,*,#542,.F.);
#717=ORIENTED_EDGE('',*,*,#489,.T.);
#718=ORIENTED_EDGE('',*,*,#511,.F.);
#719=ORIENTED_EDGE('',*,*,#542,.T.);
#720=ORIENTED_EDGE('',*,*,#543,.F.);
#721=ORIENTED_EDGE('',*,*,#544,.F.);
#722=ORIENTED_EDGE('',*,*,#512,.T.);
#723=ORIENTED_EDGE('',*,*,#544,.T.);
#724=ORIENTED_EDGE('',*,*,#545,.F.);
#725=ORIENTED_EDGE('',*,*,#546,.F.);
#726=ORIENTED_EDGE('',*,*,#513,.F.);
#727=ORIENTED_EDGE('',*,*,#546,.T.);
#728=ORIENTED_EDGE('',*,*,#547,.F.);
#729=ORIENTED_EDGE('',*,*,#548,.F.);
#730=ORIENTED_EDGE('',*,*,#514,.T.);
#731=ORIENTED_EDGE('',*,*,#548,.T.);
#732=ORIENTED_EDGE('',*,*,#549,.F.);
#733=ORIENTED_EDGE('',*,*,#550,.F.);
#734=ORIENTED_EDGE('',*,*,#515,.F.);
#735=ORIENTED_EDGE('',*,*,#550,.T.);
#736=ORIENTED_EDGE('',*,*,#551,.F.);
#737=ORIENTED_EDGE('',*,*,#538,.F.);
#738=ORIENTED_EDGE('',*,*,#533,.F.);
#739=ORIENTED_EDGE('',*,*,#552,.F.);
#740=ORIENTED_EDGE('',*,*,#553,.F.);
#741=ORIENTED_EDGE('',*,*,#520,.F.);
#742=ORIENTED_EDGE('',*,*,#521,.F.);
#743=ORIENTED_EDGE('',*,*,#553,.T.);
#744=ORIENTED_EDGE('',*,*,#554,.F.);
#745=ORIENTED_EDGE('',*,*,#497,.F.);
#746=ORIENTED_EDGE('',*,*,#494,.T.);
#747=ORIENTED_EDGE('',*,*,#555,.F.);
#748=ORIENTED_EDGE('',*,*,#525,.F.);
#749=ORIENTED_EDGE('',*,*,#499,.T.);
#750=ORIENTED_EDGE('',*,*,#529,.F.);
#751=ORIENTED_EDGE('',*,*,#556,.F.);
#752=ORIENTED_EDGE('',*,*,#557,.F.);
#753=ORIENTED_EDGE('',*,*,#504,.T.);
#754=ORIENTED_EDGE('',*,*,#505,.F.);
#755=ORIENTED_EDGE('',*,*,#557,.T.);
#756=ORIENTED_EDGE('',*,*,#558,.F.);
#757=ORIENTED_EDGE('',*,*,#559,.F.);
#758=ORIENTED_EDGE('',*,*,#506,.T.);
#759=ORIENTED_EDGE('',*,*,#559,.T.);
#760=ORIENTED_EDGE('',*,*,#560,.F.);
#761=ORIENTED_EDGE('',*,*,#561,.F.);
#762=ORIENTED_EDGE('',*,*,#507,.F.);
#763=ORIENTED_EDGE('',*,*,#561,.T.);
#764=ORIENTED_EDGE('',*,*,#562,.F.);
#765=ORIENTED_EDGE('',*,*,#563,.F.);
#766=ORIENTED_EDGE('',*,*,#508,.T.);
#767=ORIENTED_EDGE('',*,*,#563,.T.);
#768=ORIENTED_EDGE('',*,*,#564,.F.);
#769=ORIENTED_EDGE('',*,*,#565,.F.);
#770=ORIENTED_EDGE('',*,*,#509,.F.);
#771=ORIENTED_EDGE('',*,*,#565,.T.);
#772=ORIENTED_EDGE('',*,*,#566,.F.);
#773=ORIENTED_EDGE('',*,*,#540,.F.);
#774=ORIENTED_EDGE('',*,*,#493,.T.);
#775=ORIENTED_EDGE('',*,*,#498,.T.);
#776=ORIENTED_EDGE('',*,*,#554,.T.);
#777=ORIENTED_EDGE('',*,*,#552,.T.);
#778=ORIENTED_EDGE('',*,*,#532,.F.);
#779=ORIENTED_EDGE('',*,*,#535,.T.);
#780=ORIENTED_EDGE('',*,*,#537,.F.);
#781=ORIENTED_EDGE('',*,*,#539,.T.);
#782=ORIENTED_EDGE('',*,*,#551,.T.);
#783=ORIENTED_EDGE('',*,*,#549,.T.);
#784=ORIENTED_EDGE('',*,*,#547,.T.);
#785=ORIENTED_EDGE('',*,*,#545,.T.);
#786=ORIENTED_EDGE('',*,*,#543,.T.);
#787=ORIENTED_EDGE('',*,*,#541,.T.);
#788=ORIENTED_EDGE('',*,*,#566,.T.);
#789=ORIENTED_EDGE('',*,*,#564,.T.);
#790=ORIENTED_EDGE('',*,*,#562,.T.);
#791=ORIENTED_EDGE('',*,*,#560,.T.);
#792=ORIENTED_EDGE('',*,*,#558,.T.);
#793=ORIENTED_EDGE('',*,*,#556,.T.);
#794=ORIENTED_EDGE('',*,*,#528,.F.);
#795=ORIENTED_EDGE('',*,*,#530,.T.);
#796=ORIENTED_EDGE('',*,*,#523,.F.);
#797=ORIENTED_EDGE('',*,*,#526,.T.);
#798=ORIENTED_EDGE('',*,*,#555,.T.);
#799=CONICAL_SURFACE('',#865,0.887310000000008,0.82453550268586);
#800=ADVANCED_FACE('',(#78),#799,.T.);
#801=ADVANCED_FACE('',(#79),#77,.T.);
#802=ADVANCED_FACE('',(#80,#40),#45,.T.);
#803=ADVANCED_FACE('',(#81),#25,.T.);
#804=ADVANCED_FACE('',(#82),#46,.F.);
#805=ADVANCED_FACE('',(#83),#47,.F.);
#806=ADVANCED_FACE('',(#84),#48,.F.);
#807=ADVANCED_FACE('',(#85),#49,.F.);
#808=ADVANCED_FACE('',(#86),#50,.F.);
#809=ADVANCED_FACE('',(#87),#51,.F.);
#810=ADVANCED_FACE('',(#88),#52,.F.);
#811=ADVANCED_FACE('',(#89),#53,.F.);
#812=ADVANCED_FACE('',(#90),#54,.F.);
#813=ADVANCED_FACE('',(#91),#55,.F.);
#814=ADVANCED_FACE('',(#92),#56,.F.);
#815=ADVANCED_FACE('',(#93),#57,.F.);
#816=ADVANCED_FACE('',(#94),#26,.T.);
#817=ADVANCED_FACE('',(#95),#58,.T.);
#818=ADVANCED_FACE('',(#96,#41),#59,.T.);
#819=ADVANCED_FACE('',(#97),#27,.F.);
#820=ADVANCED_FACE('',(#98),#28,.F.);
#821=ADVANCED_FACE('',(#99,#42),#60,.T.);
#822=ADVANCED_FACE('',(#100,#43),#29,.F.);
#823=ADVANCED_FACE('',(#101),#61,.T.);
#824=ADVANCED_FACE('',(#102),#62,.T.);
#825=ADVANCED_FACE('',(#103),#30,.F.);
#826=ADVANCED_FACE('',(#104),#63,.T.);
#827=ADVANCED_FACE('',(#105),#31,.F.);
#828=ADVANCED_FACE('',(#106),#64,.T.);
#829=ADVANCED_FACE('',(#107),#32,.F.);
#830=ADVANCED_FACE('',(#108),#65,.T.);
#831=ADVANCED_FACE('',(#109),#33,.F.);
#832=ADVANCED_FACE('',(#110),#66,.T.);
#833=ADVANCED_FACE('',(#111,#44),#67,.T.);
#834=ADVANCED_FACE('',(#112),#34,.T.);
#835=ADVANCED_FACE('',(#113),#68,.T.);
#836=ADVANCED_FACE('',(#114),#35,.T.);
#837=ADVANCED_FACE('',(#115),#69,.T.);
#838=ADVANCED_FACE('',(#116),#36,.T.);
#839=ADVANCED_FACE('',(#117),#70,.T.);
#840=ADVANCED_FACE('',(#118),#71,.T.);
#841=ADVANCED_FACE('',(#119),#72,.T.);
#842=ADVANCED_FACE('',(#120),#73,.T.);
#843=ADVANCED_FACE('',(#121),#37,.T.);
#844=ADVANCED_FACE('',(#122),#74,.T.);
#845=ADVANCED_FACE('',(#123),#38,.T.);
#846=ADVANCED_FACE('',(#124),#75,.T.);
#847=ADVANCED_FACE('',(#125),#39,.T.);
#848=ADVANCED_FACE('',(#126),#76,.F.);
#849=CLOSED_SHELL('',(#800,#801,#802,#803,#804,#805,#806,#807,#808,#809,
#810,#811,#812,#813,#814,#815,#816,#817,#818));
#850=CLOSED_SHELL('',(#819,#820,#821,#822,#823,#824,#825,#826,#827,#828,
#829,#830,#831,#832,#833,#834,#835,#836,#837,#838,#839,#840,#841,#842,#843,
#844,#845,#846,#847,#848));
#851=DERIVED_UNIT_ELEMENT(#853,1.);
#852=DERIVED_UNIT_ELEMENT(#1480,-3.);
#853=(
MASS_UNIT()
NAMED_UNIT(*)
SI_UNIT(.KILO.,.GRAM.)
);
#854=DERIVED_UNIT((#851,#852));
#855=MEASURE_REPRESENTATION_ITEM('density measure',
POSITIVE_RATIO_MEASURE(7750.),#854);
#856=PROPERTY_DEFINITION_REPRESENTATION(#861,#858);
#857=PROPERTY_DEFINITION_REPRESENTATION(#862,#859);
#858=REPRESENTATION('material name',(#860),#1477);
#859=REPRESENTATION('density',(#855),#1477);
#860=DESCRIPTIVE_REPRESENTATION_ITEM('Steel Grade 2, Plain',
'Steel Grade 2, Plain');
#861=PROPERTY_DEFINITION('material property','material name',#1492);
#862=PROPERTY_DEFINITION('material property','density of part',#1492);
#863=AXIS2_PLACEMENT_3D('',#1197,#947,#948);
#864=AXIS2_PLACEMENT_3D('',#1198,#949,#950);
#865=AXIS2_PLACEMENT_3D('',#1199,#951,#952);
#866=AXIS2_PLACEMENT_3D('',#1201,#953,#954);
#867=AXIS2_PLACEMENT_3D('',#1204,#956,#957);
#868=AXIS2_PLACEMENT_3D('',#1205,#958,#959);
#869=AXIS2_PLACEMENT_3D('',#1207,#960,#961);
#870=AXIS2_PLACEMENT_3D('',#1209,#962,#963);
#871=AXIS2_PLACEMENT_3D('',#1210,#964,#965);
#872=AXIS2_PLACEMENT_3D('',#1211,#966,#967);
#873=AXIS2_PLACEMENT_3D('',#1224,#974,#975);
#874=AXIS2_PLACEMENT_3D('',#1226,#976,#977);
#875=AXIS2_PLACEMENT_3D('',#1228,#979,#980);
#876=AXIS2_PLACEMENT_3D('',#1235,#984,#985);
#877=AXIS2_PLACEMENT_3D('',#1239,#988,#989);
#878=AXIS2_PLACEMENT_3D('',#1243,#992,#993);
#879=AXIS2_PLACEMENT_3D('',#1247,#996,#997);
#880=AXIS2_PLACEMENT_3D('',#1251,#1000,#1001);
#881=AXIS2_PLACEMENT_3D('',#1253,#1003,#1004);
#882=AXIS2_PLACEMENT_3D('',#1256,#1007,#1008);
#883=AXIS2_PLACEMENT_3D('',#1258,#1010,#1011);
#884=AXIS2_PLACEMENT_3D('',#1260,#1013,#1014);
#885=AXIS2_PLACEMENT_3D('',#1262,#1016,#1017);
#886=AXIS2_PLACEMENT_3D('',#1264,#1019,#1020);
#887=AXIS2_PLACEMENT_3D('',#1265,#1021,#1022);
#888=AXIS2_PLACEMENT_3D('',#1268,#1024,#1025);
#889=AXIS2_PLACEMENT_3D('',#1269,#1026,#1027);
#890=AXIS2_PLACEMENT_3D('',#1270,#1028,#1029);
#891=AXIS2_PLACEMENT_3D('',#1271,#1030,#1031);
#892=AXIS2_PLACEMENT_3D('',#1273,#1032,#1033);
#893=AXIS2_PLACEMENT_3D('',#1313,#1035,#1036);
#894=AXIS2_PLACEMENT_3D('',#1315,#1037,#1038);
#895=AXIS2_PLACEMENT_3D('',#1318,#1040,#1041);
#896=AXIS2_PLACEMENT_3D('',#1319,#1042,#1043);
#897=AXIS2_PLACEMENT_3D('',#1320,#1044,#1045);
#898=AXIS2_PLACEMENT_3D('',#1325,#1047,#1048);
#899=AXIS2_PLACEMENT_3D('',#1328,#1050,#1051);
#900=AXIS2_PLACEMENT_3D('',#1329,#1052,#1053);
#901=AXIS2_PLACEMENT_3D('',#1335,#1057,#1058);
#902=AXIS2_PLACEMENT_3D('',#1341,#1061,#1062);
#903=AXIS2_PLACEMENT_3D('',#1345,#1064,#1065);
#904=AXIS2_PLACEMENT_3D('',#1349,#1067,#1068);
#905=AXIS2_PLACEMENT_3D('',#1353,#1070,#1071);
#906=AXIS2_PLACEMENT_3D('',#1357,#1073,#1074);
#907=AXIS2_PLACEMENT_3D('',#1361,#1076,#1077);
#908=AXIS2_PLACEMENT_3D('',#1365,#1079,#1080);
#909=AXIS2_PLACEMENT_3D('',#1369,#1082,#1083);
#910=AXIS2_PLACEMENT_3D('',#1373,#1085,#1086);
#911=AXIS2_PLACEMENT_3D('',#1377,#1088,#1089);
#912=AXIS2_PLACEMENT_3D('',#1381,#1092,#1093);
#913=AXIS2_PLACEMENT_3D('',#1385,#1095,#1096);
#914=AXIS2_PLACEMENT_3D('',#1387,#1098,#1099);
#915=AXIS2_PLACEMENT_3D('',#1391,#1102,#1103);
#916=AXIS2_PLACEMENT_3D('',#1395,#1105,#1106);
#917=AXIS2_PLACEMENT_3D('',#1397,#1108,#1109);
#918=AXIS2_PLACEMENT_3D('',#1399,#1111,#1112);
#919=AXIS2_PLACEMENT_3D('',#1403,#1114,#1115);
#920=AXIS2_PLACEMENT_3D('',#1405,#1117,#1118);
#921=AXIS2_PLACEMENT_3D('',#1409,#1121,#1122);
#922=AXIS2_PLACEMENT_3D('',#1412,#1124,#1125);
#923=AXIS2_PLACEMENT_3D('',#1413,#1126,#1127);
#924=AXIS2_PLACEMENT_3D('',#1417,#1130,#1131);
#925=AXIS2_PLACEMENT_3D('',#1423,#1135,#1136);
#926=AXIS2_PLACEMENT_3D('',#1425,#1137,#1138);
#927=AXIS2_PLACEMENT_3D('',#1427,#1140,#1141);
#928=AXIS2_PLACEMENT_3D('',#1431,#1144,#1145);
#929=AXIS2_PLACEMENT_3D('',#1433,#1146,#1147);
#930=AXIS2_PLACEMENT_3D('',#1435,#1149,#1150);
#931=AXIS2_PLACEMENT_3D('',#1439,#1153,#1154);
#932=AXIS2_PLACEMENT_3D('',#1440,#1155,#1156);
#933=AXIS2_PLACEMENT_3D('',#1441,#1157,#1158);
#934=AXIS2_PLACEMENT_3D('',#1445,#1161,#1162);
#935=AXIS2_PLACEMENT_3D('',#1447,#1164,#1165);
#936=AXIS2_PLACEMENT_3D('',#1449,#1167,#1168);
#937=AXIS2_PLACEMENT_3D('',#1453,#1171,#1172);
#938=AXIS2_PLACEMENT_3D('',#1455,#1173,#1174);
#939=AXIS2_PLACEMENT_3D('',#1457,#1176,#1177);
#940=AXIS2_PLACEMENT_3D('',#1461,#1180,#1181);
#941=AXIS2_PLACEMENT_3D('',#1463,#1182,#1183);
#942=AXIS2_PLACEMENT_3D('',#1465,#1185,#1186);
#943=AXIS2_PLACEMENT_3D('',#1469,#1189,#1190);
#944=AXIS2_PLACEMENT_3D('',#1470,#1191,#1192);
#945=AXIS2_PLACEMENT_3D('',#1471,#1193,#1194);
#946=AXIS2_PLACEMENT_3D('',#1472,#1195,#1196);
#947=DIRECTION('axis',(0.,0.,1.));
#948=DIRECTION('refdir',(1.,0.,0.));
#949=DIRECTION('axis',(0.,0.,1.));
#950=DIRECTION('refdir',(1.,0.,0.));
#951=DIRECTION('center_axis',(0.,0.,1.));
#952=DIRECTION('ref_axis',(-1.,0.,0.));
#953=DIRECTION('center_axis',(-1.06387651071382E-15,0.,1.));
#954=DIRECTION('ref_axis',(-1.,0.,-7.98199784518684E-16));
#955=DIRECTION('',(-0.734232515127701,8.99175499481049E-17,-0.678898087881569));
#956=DIRECTION('center_axis',(1.06387651071382E-15,0.,-1.));
#957=DIRECTION('ref_axis',(-1.,0.,0.));
#958=DIRECTION('center_axis',(1.06387651071382E-15,0.,-1.));
#959=DIRECTION('ref_axis',(-1.,0.,-1.05179023385542E-15));
#960=DIRECTION('center_axis',(-1.06387651071382E-15,0.,1.));
#961=DIRECTION('ref_axis',(1.,0.,1.05909433270163E-15));
#962=DIRECTION('center_axis',(-1.22464679914735E-16,-1.,-1.30287296353374E-31));
#963=DIRECTION('ref_axis',(1.,-1.22464679914735E-16,1.02257383847054E-15));
#964=DIRECTION('center_axis',(1.06387651071382E-15,0.,-1.));
#965=DIRECTION('ref_axis',(1.,0.,1.06387651071382E-15));
#966=DIRECTION('center_axis',(-1.06387651071382E-15,0.,1.));
#967=DIRECTION('ref_axis',(1.,0.,1.06387651071382E-15));
#968=DIRECTION('',(-0.866025403784439,-0.5,-9.21344084767718E-16));
#969=DIRECTION('',(-0.866025403784439,0.5,-9.21344084767718E-16));
#970=DIRECTION('',(6.40987562127854E-16,1.,6.81931611007541E-31));
#971=DIRECTION('',(0.866025403784439,0.5,9.21344084767718E-16));
#972=DIRECTION('',(0.866025403784439,-0.5,9.21344084767718E-16));
#973=DIRECTION('',(-3.20493781063927E-16,-1.,-3.40965805503771E-31));
#974=DIRECTION('center_axis',(1.06387651071382E-15,0.,-1.));
#975=DIRECTION('ref_axis',(-1.,0.,-7.98199784518684E-16));
#976=DIRECTION('center_axis',(1.06387651071382E-15,0.,-1.));
#977=DIRECTION('ref_axis',(1.,0.,1.06387651071382E-15));
#978=DIRECTION('',(-1.06387651071382E-15,0.,1.));
#979=DIRECTION('center_axis',(0.0435778713738291,-0.0754790873051733,-0.996194698091746));
#980=DIRECTION('ref_axis',(-0.866025403784439,-0.5,0.));
#981=DIRECTION('',(-3.18762329165829E-16,0.997141949694316,-0.0755508581011305));
#982=DIRECTION('',(-0.866025403784439,-0.5,0.));
#983=DIRECTION('',(-0.863550259614423,0.498570974847158,-0.0755508581011305));
#984=DIRECTION('center_axis',(0.0871557427476581,-2.79328735346319E-17,
-0.996194698091746));
#985=DIRECTION('ref_axis',(-3.20493781063927E-16,-1.,0.));
#986=DIRECTION('',(-3.20493781063927E-16,-1.,0.));
#987=DIRECTION('',(-0.863550259614423,-0.498570974847158,-0.0755508581011305));
#988=DIRECTION('center_axis',(0.0435778713738291,0.0754790873051733,-0.996194698091746));
#989=DIRECTION('ref_axis',(0.866025403784439,-0.5,0.));
#990=DIRECTION('',(0.866025403784439,-0.5,0.));
#991=DIRECTION('',(0.,-0.997141949694316,-0.0755508581011305));
#992=DIRECTION('center_axis',(-0.0435778713738291,0.0754790873051733,-0.996194698091746));
#993=DIRECTION('ref_axis',(0.866025403784439,0.5,0.));
#994=DIRECTION('',(0.866025403784439,0.5,0.));
#995=DIRECTION('',(0.863550259614423,-0.498570974847159,-0.0755508581011305));
#996=DIRECTION('center_axis',(-0.0871557427476581,5.58657470692638E-17,
-0.996194698091746));
#997=DIRECTION('ref_axis',(6.40987562127854E-16,1.,0.));
#998=DIRECTION('',(6.40987562127854E-16,1.,0.));
#999=DIRECTION('',(0.863550259614423,0.498570974847158,-0.0755508581011305));
#1000=DIRECTION('center_axis',(-0.0435778713738291,-0.0754790873051733,
-0.996194698091746));
#1001=DIRECTION('ref_axis',(-0.866025403784439,0.5,0.));
#1002=DIRECTION('',(-0.866025403784439,0.5,0.));
#1003=DIRECTION('center_axis',(0.5,-0.866025403784439,0.));
#1004=DIRECTION('ref_axis',(-0.866025403784439,-0.5,0.));
#1005=DIRECTION('',(0.,0.,-1.));
#1006=DIRECTION('',(0.,0.,-1.));
#1007=DIRECTION('center_axis',(1.,-3.20493781063927E-16,0.));
#1008=DIRECTION('ref_axis',(-3.20493781063927E-16,-1.,0.));
#1009=DIRECTION('',(0.,0.,-1.));
#1010=DIRECTION('center_axis',(0.5,0.866025403784439,0.));
#1011=DIRECTION('ref_axis',(0.866025403784439,-0.5,0.));
#1012=DIRECTION('',(0.,0.,-1.));
#1013=DIRECTION('center_axis',(-0.5,0.866025403784439,0.));
#1014=DIRECTION('ref_axis',(0.866025403784439,0.5,0.));
#1015=DIRECTION('',(0.,0.,-1.));
#1016=DIRECTION('center_axis',(-1.,6.40987562127854E-16,0.));
#1017=DIRECTION('ref_axis',(6.40987562127854E-16,1.,0.));
#1018=DIRECTION('',(0.,0.,-1.));
#1019=DIRECTION('center_axis',(-0.5,-0.866025403784439,0.));
#1020=DIRECTION('ref_axis',(-0.866025403784439,0.5,0.));
#1021=DIRECTION('center_axis',(1.06387651071382E-15,0.,-1.));
#1022=DIRECTION('ref_axis',(-1.,0.,-7.98199784518684E-16));
#1023=DIRECTION('',(-1.06387651071382E-15,0.,1.));
#1024=DIRECTION('center_axis',(-1.06387651071382E-15,0.,1.));
#1025=DIRECTION('ref_axis',(-1.,0.,-7.98199784518684E-16));
#1026=DIRECTION('center_axis',(1.06387651071382E-15,0.,-1.));
#1027=DIRECTION('ref_axis',(-1.,0.,-1.06387651071382E-15));
#1028=DIRECTION('center_axis',(1.06387651071382E-15,0.,-1.));
#1029=DIRECTION('ref_axis',(-1.,0.,-1.06387651071382E-15));
#1030=DIRECTION('center_axis',(-0.866025403784439,-0.5,0.));
#1031=DIRECTION('ref_axis',(-0.5,0.866025403784439,0.));
#1032=DIRECTION('center_axis',(-0.866025403784439,-0.5,0.));
#1033=DIRECTION('ref_axis',(-0.5,0.866025403784439,0.));
#1034=DIRECTION('',(-0.866025403784439,-0.5,0.));
#1035=DIRECTION('center_axis',(-0.866025403784438,-0.5,0.));
#1036=DIRECTION('ref_axis',(-0.500000000000001,0.866025403784438,0.));
#1037=DIRECTION('center_axis',(-0.866025403784439,-0.5,0.));
#1038=DIRECTION('ref_axis',(-0.500000000000001,0.866025403784438,0.));
#1039=DIRECTION('',(-0.866025403784438,-0.5,0.));
#1040=DIRECTION('center_axis',(-0.866025403784439,-0.5,0.));
#1041=DIRECTION('ref_axis',(-0.5,0.866025403784439,0.));
#1042=DIRECTION('center_axis',(0.866025403784439,0.5,0.));
#1043=DIRECTION('ref_axis',(-0.5,0.866025403784439,0.));
#1044=DIRECTION('center_axis',(0.,0.,-1.));
#1045=DIRECTION('ref_axis',(-1.,0.,0.));
#1046=DIRECTION('',(0.,0.,1.));
#1047=DIRECTION('center_axis',(0.,0.,1.));
#1048=DIRECTION('ref_axis',(-1.,0.,0.));
#1049=DIRECTION('',(0.,0.,-1.));
#1050=DIRECTION('center_axis',(0.,0.,-1.));
#1051=DIRECTION('ref_axis',(-1.,0.,0.));
#1052=DIRECTION('center_axis',(-0.866025433174535,-0.499999949094857,0.));
#1053=DIRECTION('ref_axis',(-0.499999949094857,0.866025433174535,0.));
#1054=DIRECTION('',(-0.499999949094857,0.866025433174535,0.));
#1055=DIRECTION('',(0.,0.,-1.));
#1056=DIRECTION('',(-0.499999949094857,0.866025433174535,0.));
#1057=DIRECTION('center_axis',(0.,0.,1.));
#1058=DIRECTION('ref_axis',(0.5,-0.866025403784439,0.));
#1059=DIRECTION('',(-0.866025403784439,-0.5,0.));
#1060=DIRECTION('',(0.5,-0.866025403784439,0.));
#1061=DIRECTION('center_axis',(0.,0.,1.));
#1062=DIRECTION('ref_axis',(-0.965925826289065,0.258819045102532,0.));
#1063=DIRECTION('',(-0.866025403784439,-0.5,0.));
#1064=DIRECTION('center_axis',(0.,0.,1.));
#1065=DIRECTION('ref_axis',(0.258819045102521,0.965925826289068,0.));
#1066=DIRECTION('',(-0.5,0.866025403784439,0.));
#1067=DIRECTION('center_axis',(0.,0.,1.));
#1068=DIRECTION('ref_axis',(-0.866025403784448,-0.499999999999984,0.));
#1069=DIRECTION('',(-0.866025403784434,-0.500000000000009,0.));
#1070=DIRECTION('center_axis',(0.,0.,1.));
#1071=DIRECTION('ref_axis',(0.50000000000023,-0.866025403784305,0.));
#1072=DIRECTION('',(-0.258819045102514,-0.96592582628907,0.));
#1073=DIRECTION('center_axis',(0.,0.,1.));
#1074=DIRECTION('ref_axis',(0.965925826289084,-0.258819045102463,0.));
#1075=DIRECTION('',(0.5,-0.866025403784439,0.));
#1076=DIRECTION('center_axis',(0.,0.,1.));
#1077=DIRECTION('ref_axis',(0.866025403784602,0.499999999999718,0.));
#1078=DIRECTION('',(0.965925826289071,-0.25881904510251,0.));
#1079=DIRECTION('center_axis',(0.,0.,1.));
#1080=DIRECTION('ref_axis',(0.258819045102511,0.965925826289071,0.));
#1081=DIRECTION('',(0.866025403784441,0.499999999999996,0.));
#1082=DIRECTION('center_axis',(0.,0.,1.));
#1083=DIRECTION('ref_axis',(-0.612451788220037,0.790507942468689,0.));
#1084=DIRECTION('',(-0.500000016010304,0.866025394540885,0.));
#1085=DIRECTION('center_axis',(0.,0.,1.));
#1086=DIRECTION('ref_axis',(0.965925828681478,-0.258819036173926,0.));
#1087=DIRECTION('',(0.866025403784439,0.5,0.));
#1088=DIRECTION('center_axis',(0.,0.,1.));
#1089=DIRECTION('ref_axis',(-0.258819045102521,-0.965925826289068,0.));
#1090=DIRECTION('',(-0.5,0.866025403784439,0.));
#1091=DIRECTION('',(-0.866025403784439,-0.5,0.));
#1092=DIRECTION('center_axis',(0.,0.,-1.));
#1093=DIRECTION('ref_axis',(-0.965925826289065,0.258819045102532,0.));
#1094=DIRECTION('',(0.,0.,-1.));
#1095=DIRECTION('center_axis',(0.,0.,-1.));
#1096=DIRECTION('ref_axis',(-0.965925826289065,0.258819045102532,0.));
#1097=DIRECTION('',(0.,0.,1.));
#1098=DIRECTION('center_axis',(0.866025403784439,0.5,0.));
#1099=DIRECTION('ref_axis',(0.5,-0.866025403784439,0.));
#1100=DIRECTION('',(0.,0.,-1.));
#1101=DIRECTION('',(0.5,-0.866025403784439,0.));
#1102=DIRECTION('center_axis',(0.,0.,-1.));
#1103=DIRECTION('ref_axis',(0.258819045102521,0.965925826289068,0.));
#1104=DIRECTION('',(0.,0.,-1.));
#1105=DIRECTION('center_axis',(0.,0.,-1.));
#1106=DIRECTION('ref_axis',(0.258819045102521,0.965925826289068,0.));
#1107=DIRECTION('',(0.,0.,1.));
#1108=DIRECTION('center_axis',(0.5,-0.866025403784439,0.));
#1109=DIRECTION('ref_axis',(-0.866025403784439,-0.5,0.));
#1110=DIRECTION('',(-0.866025403784439,-0.5,0.));
#1111=DIRECTION('center_axis',(0.,0.,-1.));
#1112=DIRECTION('ref_axis',(-0.258819045102521,-0.965925826289068,0.));
#1113=DIRECTION('',(0.,0.,-1.));
#1114=DIRECTION('center_axis',(0.,0.,-1.));
#1115=DIRECTION('ref_axis',(-0.258819045102521,-0.965925826289068,0.));
#1116=DIRECTION('',(0.,0.,1.));
#1117=DIRECTION('center_axis',(-0.5,0.866025403784439,0.));
#1118=DIRECTION('ref_axis',(0.866025403784439,0.5,0.));
#1119=DIRECTION('',(0.,0.,1.));
#1120=DIRECTION('',(0.866025403784439,0.5,0.));
#1121=DIRECTION('center_axis',(0.,0.,-1.));
#1122=DIRECTION('ref_axis',(0.965925828681478,-0.258819036173926,0.));
#1123=DIRECTION('',(0.,0.,-1.));
#1124=DIRECTION('center_axis',(0.,0.,-1.));
#1125=DIRECTION('ref_axis',(0.965925828681478,-0.258819036173926,0.));
#1126=DIRECTION('center_axis',(-0.866025394540885,-0.500000016010304,0.));
#1127=DIRECTION('ref_axis',(-0.500000016010304,0.866025394540885,0.));
#1128=DIRECTION('',(0.,0.,-1.));
#1129=DIRECTION('',(-0.500000016010304,0.866025394540885,0.));
#1130=DIRECTION('center_axis',(0.866025403784439,0.5,0.));
#1131=DIRECTION('ref_axis',(0.5,-0.866025403784439,0.));
#1132=DIRECTION('',(0.,0.,-1.));
#1133=DIRECTION('',(0.5,-0.866025403784439,0.));
#1134=DIRECTION('',(0.,0.,-1.));
#1135=DIRECTION('center_axis',(0.,0.,-1.));
#1136=DIRECTION('ref_axis',(0.866025403784602,0.499999999999718,0.));
#1137=DIRECTION('center_axis',(0.,0.,-1.));
#1138=DIRECTION('ref_axis',(0.866025403784602,0.499999999999718,0.));
#1139=DIRECTION('',(0.,0.,-1.));
#1140=DIRECTION('center_axis',(0.25881904510251,0.965925826289071,0.));
#1141=DIRECTION('ref_axis',(0.965925826289071,-0.25881904510251,0.));
#1142=DIRECTION('',(0.965925826289071,-0.25881904510251,0.));
#1143=DIRECTION('',(0.,0.,-1.));
#1144=DIRECTION('center_axis',(0.,0.,-1.));
#1145=DIRECTION('ref_axis',(0.258819045102511,0.965925826289071,0.));
#1146=DIRECTION('center_axis',(0.,0.,-1.));
#1147=DIRECTION('ref_axis',(0.258819045102511,0.965925826289071,0.));
#1148=DIRECTION('',(0.,0.,-1.));
#1149=DIRECTION('center_axis',(-0.499999999999996,0.866025403784441,0.));
#1150=DIRECTION('ref_axis',(0.866025403784441,0.499999999999996,0.));
#1151=DIRECTION('',(0.866025403784441,0.499999999999996,0.));
#1152=DIRECTION('',(0.,0.,-1.));
#1153=DIRECTION('center_axis',(0.,0.,-1.));
#1154=DIRECTION('ref_axis',(-0.612451788220037,0.790507942468689,0.));
#1155=DIRECTION('center_axis',(0.,0.,-1.));
#1156=DIRECTION('ref_axis',(-0.612451788220037,0.790507942468689,0.));
#1157=DIRECTION('center_axis',(0.866025403784439,0.5,0.));
#1158=DIRECTION('ref_axis',(0.5,-0.866025403784439,0.));
#1159=DIRECTION('',(0.5,-0.866025403784439,0.));
#1160=DIRECTION('',(0.,0.,-1.));
#1161=DIRECTION('center_axis',(-0.5,0.866025403784439,0.));
#1162=DIRECTION('ref_axis',(0.866025403784439,0.5,0.));
#1163=DIRECTION('',(0.866025403784439,0.5,0.));
#1164=DIRECTION('center_axis',(0.5,-0.866025403784439,0.));
#1165=DIRECTION('ref_axis',(-0.866025403784439,-0.5,0.));
#1166=DIRECTION('',(-0.866025403784439,-0.5,0.));
#1167=DIRECTION('center_axis',(-0.866025403784439,-0.5,0.));
#1168=DIRECTION('ref_axis',(-0.5,0.866025403784439,0.));
#1169=DIRECTION('',(-0.5,0.866025403784439,0.));
#1170=DIRECTION('',(0.,0.,-1.));
#1171=DIRECTION('center_axis',(0.,0.,-1.));
#1172=DIRECTION('ref_axis',(-0.866025403784448,-0.499999999999984,0.));
#1173=DIRECTION('center_axis',(0.,0.,-1.));
#1174=DIRECTION('ref_axis',(-0.866025403784448,-0.499999999999984,0.));
#1175=DIRECTION('',(0.,0.,-1.));
#1176=DIRECTION('center_axis',(0.500000000000009,-0.866025403784433,0.));
#1177=DIRECTION('ref_axis',(-0.866025403784434,-0.500000000000009,0.));
#1178=DIRECTION('',(-0.866025403784434,-0.500000000000009,0.));
#1179=DIRECTION('',(0.,0.,-1.));
#1180=DIRECTION('center_axis',(0.,0.,-1.));
#1181=DIRECTION('ref_axis',(0.50000000000023,-0.866025403784305,0.));
#1182=DIRECTION('center_axis',(0.,0.,-1.));
#1183=DIRECTION('ref_axis',(0.50000000000023,-0.866025403784305,0.));
#1184=DIRECTION('',(0.,0.,-1.));
#1185=DIRECTION('center_axis',(0.96592582628907,-0.258819045102514,0.));
#1186=DIRECTION('ref_axis',(-0.258819045102514,-0.96592582628907,0.));
#1187=DIRECTION('',(-0.258819045102514,-0.96592582628907,0.));
#1188=DIRECTION('',(0.,0.,-1.));
#1189=DIRECTION('center_axis',(0.,0.,-1.));
#1190=DIRECTION('ref_axis',(0.965925826289084,-0.258819045102463,0.));
#1191=DIRECTION('center_axis',(0.,0.,-1.));
#1192=DIRECTION('ref_axis',(0.965925826289084,-0.258819045102463,0.));
#1193=DIRECTION('center_axis',(0.,0.,1.));
#1194=DIRECTION('ref_axis',(0.5,-0.866025403784439,0.));
#1195=DIRECTION('',(0.866025403784439,0.5,1.22464679914735E-16));
#1196=DIRECTION('',(-0.5,0.866025403784439,0.));
#1197=CARTESIAN_POINT('',(0.,0.,0.));
#1198=CARTESIAN_POINT('',(0.,0.,0.));
#1199=CARTESIAN_POINT('Origin',(0.,0.,-7.87731));
#1200=CARTESIAN_POINT('',(0.966750000000008,1.1839272930757E-16,-7.80385688672848));
#1201=CARTESIAN_POINT('Origin',(8.30234003476274E-15,0.,-7.80385688672848));
#1202=CARTESIAN_POINT('',(0.754619999999992,-9.24142967572566E-17,-8.));
#1203=CARTESIAN_POINT('',(0.887310000000008,-1.08664135135145E-16,-7.87731));
#1204=CARTESIAN_POINT('Origin',(0.,0.,-8.));
#1205=CARTESIAN_POINT('Origin',(-1.91497771928471E-15,0.,1.79999999999984));
#1206=CARTESIAN_POINT('',(1.89999999999999,-2.32682891837996E-16,1.79999999999984));
#1207=CARTESIAN_POINT('Origin',(-1.91497771928471E-15,0.,1.79999999999984));
#1208=CARTESIAN_POINT('',(1.69999999999999,-2.08189955855049E-16,1.99999999999984));
#1209=CARTESIAN_POINT('Origin',(1.69999999999999,-2.08189955855049E-16,
1.79999999999984));
#1210=CARTESIAN_POINT('Origin',(-2.12775302142747E-15,0.,1.99999999999984));
#1211=CARTESIAN_POINT('Origin',(-1.9,0.,1.99999999999984));
#1212=CARTESIAN_POINT('',(0.75,-0.433012701892219,2.));
#1213=CARTESIAN_POINT('',(1.38777878078145E-16,-0.866025403784439,2.));
#1214=CARTESIAN_POINT('',(-0.149999999999998,-0.952627944162882,1.99999999999984));
#1215=CARTESIAN_POINT('',(-0.750000000000001,-0.433012701892219,2.));
#1216=CARTESIAN_POINT('',(-0.899999999999998,-0.346410161513777,1.99999999999984));
#1217=CARTESIAN_POINT('',(-0.75,0.43301270189222,2.));
#1218=CARTESIAN_POINT('',(-0.75,-0.21650635094611,1.99999999999984));
#1219=CARTESIAN_POINT('',(1.73472347597681E-17,0.866025403784439,2.));
#1220=CARTESIAN_POINT('',(-1.275,0.129903810567667,1.99999999999984));
#1221=CARTESIAN_POINT('',(0.750000000000001,0.433012701892219,2.));
#1222=CARTESIAN_POINT('',(-0.524999999999998,1.16913429510899,1.99999999999984));
#1223=CARTESIAN_POINT('',(0.75,0.216506350946109,1.99999999999984));
#1224=CARTESIAN_POINT('Origin',(-1.06387651071363E-15,0.,0.999999999999815));
#1225=CARTESIAN_POINT('',(1.89999999999999,-2.32682891837996E-16,-2.07750483482982E-13));
#1226=CARTESIAN_POINT('Origin',(2.22737193531938E-28,0.,-2.08713982050247E-13));
#1227=CARTESIAN_POINT('',(1.89999999999999,-2.32682891837996E-16,0.999999999999817));
#1228=CARTESIAN_POINT('Origin',(1.38777878078145E-16,-0.866025403784439,
1.));
#1229=CARTESIAN_POINT('',(1.38777878078145E-16,-0.866025403784439,1.));
#1230=CARTESIAN_POINT('',(-6.92528178585494E-17,1.38777878078145E-16,0.934383502355557));
#1231=CARTESIAN_POINT('',(1.38777878078145E-16,-0.650754856401699,0.983689509218169));
#1232=CARTESIAN_POINT('',(0.75,-0.433012701892219,1.));
#1233=CARTESIAN_POINT('',(8.5846548499269E-17,-0.866025403784439,1.));
#1234=CARTESIAN_POINT('',(0.563570237279966,-0.325377428200849,0.983689509218169));
#1235=CARTESIAN_POINT('Origin',(0.75,-0.433012701892219,1.));
#1236=CARTESIAN_POINT('',(0.750000000000001,0.433012701892219,1.));
#1237=CARTESIAN_POINT('',(0.75,-0.433012701892219,1.));
#1238=CARTESIAN_POINT('',(0.563570237279966,0.32537742820085,0.983689509218169));
#1239=CARTESIAN_POINT('Origin',(0.750000000000001,0.433012701892219,1.));
#1240=CARTESIAN_POINT('',(0.,0.866025403784439,1.));
#1241=CARTESIAN_POINT('',(0.750000000000001,0.433012701892219,1.));
#1242=CARTESIAN_POINT('',(-6.93889390390723E-17,0.650754856401699,0.983689509218169));
#1243=CARTESIAN_POINT('Origin',(0.,0.866025403784439,1.));
#1244=CARTESIAN_POINT('',(-0.75,0.43301270189222,1.));
#1245=CARTESIAN_POINT('',(1.73472347597681E-17,0.866025403784439,1.));
#1246=CARTESIAN_POINT('',(-0.563570237279966,0.325377428200849,0.983689509218169));
#1247=CARTESIAN_POINT('Origin',(-0.75,0.43301270189222,1.));
#1248=CARTESIAN_POINT('',(-0.750000000000001,-0.433012701892219,1.));
#1249=CARTESIAN_POINT('',(-0.75,0.43301270189222,1.));
#1250=CARTESIAN_POINT('',(-0.563570237279966,-0.325377428200849,0.983689509218169));
#1251=CARTESIAN_POINT('Origin',(-0.750000000000001,-0.433012701892219,1.));
#1252=CARTESIAN_POINT('',(-0.750000000000001,-0.433012701892219,1.));
#1253=CARTESIAN_POINT('Origin',(0.75,-0.433012701892219,2.));
#1254=CARTESIAN_POINT('',(0.75,-0.433012701892219,2.));
#1255=CARTESIAN_POINT('',(1.38777878078145E-16,-0.866025403784439,2.));
#1256=CARTESIAN_POINT('Origin',(0.750000000000001,0.433012701892219,2.));
#1257=CARTESIAN_POINT('',(0.750000000000001,0.433012701892219,2.));
#1258=CARTESIAN_POINT('Origin',(0.,0.866025403784439,2.));
#1259=CARTESIAN_POINT('',(1.73472347597681E-17,0.866025403784439,2.));
#1260=CARTESIAN_POINT('Origin',(-0.75,0.43301270189222,2.));
#1261=CARTESIAN_POINT('',(-0.75,0.43301270189222,2.));
#1262=CARTESIAN_POINT('Origin',(-0.750000000000001,-0.433012701892219,2.));
#1263=CARTESIAN_POINT('',(-0.750000000000001,-0.433012701892219,2.));
#1264=CARTESIAN_POINT('Origin',(1.38777878078145E-16,-0.866025403784439,
2.));
#1265=CARTESIAN_POINT('Origin',(4.25550604285535E-15,0.,-4.00000000000006));
#1266=CARTESIAN_POINT('',(0.96675,1.1839272930757E-16,-1.09140419796207E-13));
#1267=CARTESIAN_POINT('',(0.966750000000004,-1.1839272930757E-16,-4.00000000000005));
#1268=CARTESIAN_POINT('Origin',(1.17836097717389E-28,0.,-1.0991207943789E-13));
#1269=CARTESIAN_POINT('Origin',(8.46545056276682E-15,0.,-8.));
#1270=CARTESIAN_POINT('Origin',(-0.999999999999993,0.,-1.10913340747685E-13));
#1271=CARTESIAN_POINT('Origin',(34.1598091370318,20.3550007751284,297.5));
#1272=CARTESIAN_POINT('',(32.9277583294629,18.4889753713439,297.5));
#1273=CARTESIAN_POINT('Origin',(32.4277583294629,19.3550007751284,297.5));
#1274=CARTESIAN_POINT('',(28.3690823755064,15.8570225821789,297.5));
#1275=CARTESIAN_POINT('',(34.6598091370318,19.4889753713439,297.5));
#1276=CARTESIAN_POINT('',(27.3398570329044,17.5722001303293,297.5));
#1277=CARTESIAN_POINT('Ctrl Pts',(27.3398570329044,17.5722001303293,297.5));
#1278=CARTESIAN_POINT('Ctrl Pts',(27.3398570329044,17.5722001303293,297.625572331145));
#1279=CARTESIAN_POINT('Ctrl Pts',(27.3534688043719,17.5510783970856,297.759502784811));
#1280=CARTESIAN_POINT('Ctrl Pts',(27.4084966408444,17.4650199089355,298.005858060769));
#1281=CARTESIAN_POINT('Ctrl Pts',(27.44987600668,17.4000631051585,298.118284075091));
#1282=CARTESIAN_POINT('Ctrl Pts',(27.5445864831237,17.249743466574,298.295847956753));
#1283=CARTESIAN_POINT('Ctrl Pts',(27.604233578165,17.1543428348835,298.372817298192));
#1284=CARTESIAN_POINT('Ctrl Pts',(27.7335424767299,16.9444920616096,298.474893724545));
#1285=CARTESIAN_POINT('Ctrl Pts',(27.8031690858602,16.8300198417502,298.5));
#1286=CARTESIAN_POINT('Ctrl Pts',(27.9324089025525,16.6146411118331,298.5));
#1287=CARTESIAN_POINT('Ctrl Pts',(28.0006327988278,16.4993860116587,298.474911815522));
#1288=CARTESIAN_POINT('Ctrl Pts',(28.1249074755551,16.2866434659804,298.372865785256));
#1289=CARTESIAN_POINT('Ctrl Pts',(28.1809941310263,16.1891770461521,298.295907799657));
#1290=CARTESIAN_POINT('Ctrl Pts',(28.2690314240983,16.0349538936543,298.118336162031));
#1291=CARTESIAN_POINT('Ctrl Pts',(28.3068556831127,15.9679217717552,298.00588704139));
#1292=CARTESIAN_POINT('Ctrl Pts',(28.3568631674978,15.8789456726101,297.759502719096));
#1293=CARTESIAN_POINT('Ctrl Pts',(28.3690823755064,15.8570225821789,297.625567279629));
#1294=CARTESIAN_POINT('Ctrl Pts',(28.3690823755064,15.8570225821789,297.5));
#1295=CARTESIAN_POINT('Ctrl Pts',(28.3690823755064,15.8570225821789,297.5));
#1296=CARTESIAN_POINT('Ctrl Pts',(28.3690823755064,15.8570225821789,297.374432720371));
#1297=CARTESIAN_POINT('Ctrl Pts',(28.3568631674978,15.8789456726101,297.240497280904));
#1298=CARTESIAN_POINT('Ctrl Pts',(28.3068556831127,15.9679217717552,296.99411295861));
#1299=CARTESIAN_POINT('Ctrl Pts',(28.2690314240983,16.0349538936543,296.881663837969));
#1300=CARTESIAN_POINT('Ctrl Pts',(28.1809941310263,16.1891770461521,296.704092200343));
#1301=CARTESIAN_POINT('Ctrl Pts',(28.1249074755551,16.2866434659804,296.627134214744));
#1302=CARTESIAN_POINT('Ctrl Pts',(28.0006327988278,16.4993860116587,296.525088184478));
#1303=CARTESIAN_POINT('Ctrl Pts',(27.9324089025525,16.6146411118331,296.5));
#1304=CARTESIAN_POINT('Ctrl Pts',(27.8031690858602,16.8300198417502,296.5));
#1305=CARTESIAN_POINT('Ctrl Pts',(27.7335424767299,16.9444920616096,296.525106275455));
#1306=CARTESIAN_POINT('Ctrl Pts',(27.604233578165,17.1543428348835,296.627182701808));
#1307=CARTESIAN_POINT('Ctrl Pts',(27.5445864831237,17.249743466574,296.704152043247));
#1308=CARTESIAN_POINT('Ctrl Pts',(27.44987600668,17.4000631051585,296.881715924909));
#1309=CARTESIAN_POINT('Ctrl Pts',(27.4084966408444,17.4650199089355,296.994141939231));
#1310=CARTESIAN_POINT('Ctrl Pts',(27.3534688043719,17.5510783970856,297.240497215189));
#1311=CARTESIAN_POINT('Ctrl Pts',(27.3398570329044,17.5722001303293,297.374427668855));
#1312=CARTESIAN_POINT('Ctrl Pts',(27.3398570329044,17.5722001303293,297.5));
#1313=CARTESIAN_POINT('Origin',(34.1598091370318,20.3550007751284,297.5));
#1314=CARTESIAN_POINT('',(35.1598091370318,18.6229499675595,297.5));
#1315=CARTESIAN_POINT('Origin',(34.1598091370318,20.3550007751284,297.5));
#1316=CARTESIAN_POINT('',(33.4277583294629,17.6229499675595,297.5));
#1317=CARTESIAN_POINT('',(35.1598091370318,18.6229499675595,297.5));
#1318=CARTESIAN_POINT('Origin',(32.4277583294629,19.3550007751284,297.5));
#1319=CARTESIAN_POINT('Origin',(32.4277583294629,19.3550007751284,297.5));
#1320=CARTESIAN_POINT('Origin',(0.,0.,300.));
#1321=CARTESIAN_POINT('',(25.0770813003767,20.6734127191013,295.));
#1322=CARTESIAN_POINT('',(25.0770813003767,20.6734127191013,300.));
#1323=CARTESIAN_POINT('',(25.0770813003767,20.6734127191013,300.));
#1324=CARTESIAN_POINT('',(30.4375511016933,11.3932209199948,295.));
#1325=CARTESIAN_POINT('Origin',(0.,0.,295.));
#1326=CARTESIAN_POINT('',(30.4375511016933,11.3932209199948,300.));
#1327=CARTESIAN_POINT('',(30.4375511016933,11.3932209199948,300.));
#1328=CARTESIAN_POINT('Origin',(0.,0.,300.));
#1329=CARTESIAN_POINT('Origin',(30.4356391301586,11.3921170427146,300.));
#1330=CARTESIAN_POINT('',(24.5356397308393,21.6112171541741,300.));
#1331=CARTESIAN_POINT('',(30.4356391301586,11.3921170427146,300.));
#1332=CARTESIAN_POINT('',(24.5356397308393,21.6112171541741,295.));
#1333=CARTESIAN_POINT('',(24.5356397308393,21.6112171541741,300.));
#1334=CARTESIAN_POINT('',(30.4356391301586,11.3921170427146,295.));
#1335=CARTESIAN_POINT('Origin',(30.8227241335952,18.4283338500856,300.));
#1336=CARTESIAN_POINT('',(31.8270541739468,12.1954508928002,300.));
#1337=CARTESIAN_POINT('',(31.8270541739468,12.1954508928002,300.));
#1338=CARTESIAN_POINT('',(30.4770541739467,14.5337194830182,300.));
#1339=CARTESIAN_POINT('',(30.3770541739467,14.7069245637751,300.));
#1340=CARTESIAN_POINT('',(30.5502592547036,14.8069245637751,300.));
#1341=CARTESIAN_POINT('Origin',(30.6502592547036,14.6337194830182,300.));
#1342=CARTESIAN_POINT('',(32.1091049815156,15.7069245637751,300.));
#1343=CARTESIAN_POINT('',(32.2823100622725,15.8069245637751,300.));
#1344=CARTESIAN_POINT('',(32.3823100622725,15.6337194830182,300.));
#1345=CARTESIAN_POINT('Origin',(32.2091049815156,15.5337194830182,300.));
#1346=CARTESIAN_POINT('',(33.2573100622725,14.1181750263954,300.));
#1347=CARTESIAN_POINT('',(33.2573100622725,14.1181750263954,300.));
#1348=CARTESIAN_POINT('',(33.6671176834079,14.0083674052601,300.));
#1349=CARTESIAN_POINT('Origin',(33.5171176834079,14.2681750263954,300.));
#1350=CARTESIAN_POINT('',(34.6135909745241,14.5548140146668,300.));
#1351=CARTESIAN_POINT('',(34.6135909745241,14.5548140146668,300.));
#1352=CARTESIAN_POINT('',(34.7533687224107,14.7369759222714,300.));
#1353=CARTESIAN_POINT('Origin',(34.463590974524,14.8146216358021,300.));
#1354=CARTESIAN_POINT('',(35.5612258731899,17.7519398542372,300.));
#1355=CARTESIAN_POINT('',(35.5612258731899,17.7519398542372,300.));
#1356=CARTESIAN_POINT('',(35.5312557464385,17.9795855677679,300.));
#1357=CARTESIAN_POINT('Origin',(35.2714481253032,17.8295855677679,300.));
#1358=CARTESIAN_POINT('',(32.7883625276251,22.7304159824888,300.));
#1359=CARTESIAN_POINT('',(32.7883625276251,22.7304159824888,300.));
#1360=CARTESIAN_POINT('',(32.6062006200206,22.8701937303756,300.));
#1361=CARTESIAN_POINT('Origin',(32.5285549064898,22.580415982489,300.));
#1362=CARTESIAN_POINT('',(29.5912366880548,23.6780508811548,300.));
#1363=CARTESIAN_POINT('',(29.5912366880548,23.6780508811548,300.));
#1364=CARTESIAN_POINT('',(29.363590974524,23.6480807544034,300.));
#1365=CARTESIAN_POINT('Origin',(29.513590974524,23.388273133268,300.));
#1366=CARTESIAN_POINT('',(28.3840864740048,23.0825635673562,300.));
#1367=CARTESIAN_POINT('',(28.3840864740048,23.0825635673562,300.));
#1368=CARTESIAN_POINT('',(28.3073100310524,22.6918265058364,300.));
#1369=CARTESIAN_POINT('Origin',(28.5695232343504,22.8432153693456,300.));
#1370=CARTESIAN_POINT('',(29.1823100572217,21.1762820685919,300.));
#1371=CARTESIAN_POINT('',(29.2823100622725,21.0030769864817,300.));
#1372=CARTESIAN_POINT('',(29.1091049783136,20.903076984633,300.));
#1373=CARTESIAN_POINT('Origin',(29.0091049783136,21.0762820653899,300.));
#1374=CARTESIAN_POINT('',(27.5502592547036,20.0030769864817,300.));
#1375=CARTESIAN_POINT('',(27.3770541739467,19.9030769864817,300.));
#1376=CARTESIAN_POINT('',(27.2770541739468,20.0762820672386,300.));
#1377=CARTESIAN_POINT('Origin',(27.4502592547036,20.1762820672386,300.));
#1378=CARTESIAN_POINT('',(25.9270541739468,22.4145506574566,300.));
#1379=CARTESIAN_POINT('',(27.3770541739467,19.9030769864817,300.));
#1380=CARTESIAN_POINT('',(25.9270541739468,22.4145506574566,300.));
#1381=CARTESIAN_POINT('Origin',(30.6502592547036,14.6337194830182,300.));
#1382=CARTESIAN_POINT('',(30.4770541739467,14.5337194830182,295.));
#1383=CARTESIAN_POINT('',(30.4770541739467,14.5337194830182,300.));
#1384=CARTESIAN_POINT('',(30.5502592547036,14.8069245637751,295.));
#1385=CARTESIAN_POINT('Origin',(30.6502592547036,14.6337194830182,295.));
#1386=CARTESIAN_POINT('',(30.5502592547036,14.8069245637751,300.));
#1387=CARTESIAN_POINT('Origin',(30.3770541739467,14.7069245637751,300.));
#1388=CARTESIAN_POINT('',(31.8270541739468,12.1954508928002,295.));
#1389=CARTESIAN_POINT('',(31.8270541739468,12.1954508928002,300.));
#1390=CARTESIAN_POINT('',(30.3770541739467,14.7069245637751,295.));
#1391=CARTESIAN_POINT('Origin',(32.2091049815156,15.5337194830182,300.));
#1392=CARTESIAN_POINT('',(32.1091049815156,15.7069245637751,295.));
#1393=CARTESIAN_POINT('',(32.1091049815156,15.7069245637751,300.));
#1394=CARTESIAN_POINT('',(32.3823100622725,15.6337194830182,295.));
#1395=CARTESIAN_POINT('Origin',(32.2091049815156,15.5337194830182,295.));
#1396=CARTESIAN_POINT('',(32.3823100622725,15.6337194830182,300.));
#1397=CARTESIAN_POINT('Origin',(32.2823100622725,15.8069245637751,300.));
#1398=CARTESIAN_POINT('',(32.2823100622725,15.8069245637751,295.));
#1399=CARTESIAN_POINT('Origin',(27.4502592547036,20.1762820672386,300.));
#1400=CARTESIAN_POINT('',(27.5502592547036,20.0030769864817,295.));
#1401=CARTESIAN_POINT('',(27.5502592547036,20.0030769864817,300.));
#1402=CARTESIAN_POINT('',(27.2770541739468,20.0762820672386,295.));
#1403=CARTESIAN_POINT('Origin',(27.4502592547036,20.1762820672386,295.));
#1404=CARTESIAN_POINT('',(27.2770541739468,20.0762820672386,300.));
#1405=CARTESIAN_POINT('Origin',(27.3770541739467,19.9030769864817,300.));
#1406=CARTESIAN_POINT('',(29.1091049783136,20.903076984633,295.));
#1407=CARTESIAN_POINT('',(29.1091049783136,20.903076984633,300.));
#1408=CARTESIAN_POINT('',(27.3770541739467,19.9030769864817,295.));
#1409=CARTESIAN_POINT('Origin',(29.0091049783136,21.0762820653899,300.));
#1410=CARTESIAN_POINT('',(29.1823100572217,21.1762820685919,295.));
#1411=CARTESIAN_POINT('',(29.1823100572217,21.1762820685919,300.));
#1412=CARTESIAN_POINT('Origin',(29.0091049783136,21.0762820653899,295.));
#1413=CARTESIAN_POINT('Origin',(29.2823100622725,21.0030769864817,300.));
#1414=CARTESIAN_POINT('',(28.3073100310524,22.6918265058364,295.));
#1415=CARTESIAN_POINT('',(28.3073100310524,22.6918265058364,300.));
#1416=CARTESIAN_POINT('',(29.2823100622725,21.0030769864817,295.));
#1417=CARTESIAN_POINT('Origin',(32.7883625276251,22.7304159824888,300.));
#1418=CARTESIAN_POINT('',(35.5312557464385,17.9795855677679,295.));
#1419=CARTESIAN_POINT('',(35.5312557464385,17.9795855677679,300.));
#1420=CARTESIAN_POINT('',(32.7883625276251,22.7304159824888,295.));
#1421=CARTESIAN_POINT('',(32.7883625276251,22.7304159824888,295.));
#1422=CARTESIAN_POINT('',(32.7883625276251,22.7304159824888,300.));
#1423=CARTESIAN_POINT('Origin',(32.5285549064898,22.580415982489,300.));
#1424=CARTESIAN_POINT('',(32.6062006200206,22.8701937303756,295.));
#1425=CARTESIAN_POINT('Origin',(32.5285549064898,22.580415982489,295.));
#1426=CARTESIAN_POINT('',(32.6062006200206,22.8701937303756,300.));
#1427=CARTESIAN_POINT('Origin',(29.5912366880548,23.6780508811548,300.));
#1428=CARTESIAN_POINT('',(29.5912366880548,23.6780508811548,295.));
#1429=CARTESIAN_POINT('',(29.5912366880548,23.6780508811548,295.));
#1430=CARTESIAN_POINT('',(29.5912366880548,23.6780508811548,300.));
#1431=CARTESIAN_POINT('Origin',(29.513590974524,23.388273133268,300.));
#1432=CARTESIAN_POINT('',(29.363590974524,23.6480807544034,295.));
#1433=CARTESIAN_POINT('Origin',(29.513590974524,23.388273133268,295.));
#1434=CARTESIAN_POINT('',(29.363590974524,23.6480807544034,300.));
#1435=CARTESIAN_POINT('Origin',(28.3840864740048,23.0825635673562,300.));
#1436=CARTESIAN_POINT('',(28.3840864740048,23.0825635673562,295.));
#1437=CARTESIAN_POINT('',(28.3840864740048,23.0825635673562,295.));
#1438=CARTESIAN_POINT('',(28.3840864740048,23.0825635673562,300.));
#1439=CARTESIAN_POINT('Origin',(28.5695232343504,22.8432153693456,300.));
#1440=CARTESIAN_POINT('Origin',(28.5695232343504,22.8432153693456,295.));
#1441=CARTESIAN_POINT('Origin',(25.9270541739468,22.4145506574566,300.));
#1442=CARTESIAN_POINT('',(25.9270541739468,22.4145506574566,295.));
#1443=CARTESIAN_POINT('',(27.3770541739467,19.9030769864817,295.));
#1444=CARTESIAN_POINT('',(25.9270541739468,22.4145506574566,300.));
#1445=CARTESIAN_POINT('Origin',(24.5356397308393,21.6112171541741,300.));
#1446=CARTESIAN_POINT('',(25.9270541739468,22.4145506574566,295.));
#1447=CARTESIAN_POINT('Origin',(31.8270541739468,12.1954508928002,300.));
#1448=CARTESIAN_POINT('',(31.8270541739468,12.1954508928002,295.));
#1449=CARTESIAN_POINT('Origin',(33.2573100622725,14.1181750263954,300.));
#1450=CARTESIAN_POINT('',(33.2573100622725,14.1181750263954,295.));
#1451=CARTESIAN_POINT('',(33.2573100622725,14.1181750263954,295.));
#1452=CARTESIAN_POINT('',(33.2573100622725,14.1181750263954,300.));
#1453=CARTESIAN_POINT('Origin',(33.5171176834079,14.2681750263954,300.));
#1454=CARTESIAN_POINT('',(33.6671176834079,14.0083674052601,295.));
#1455=CARTESIAN_POINT('Origin',(33.5171176834079,14.2681750263954,295.));
#1456=CARTESIAN_POINT('',(33.6671176834079,14.0083674052601,300.));
#1457=CARTESIAN_POINT('Origin',(34.6135909745241,14.5548140146668,300.));
#1458=CARTESIAN_POINT('',(34.6135909745241,14.5548140146668,295.));
#1459=CARTESIAN_POINT('',(34.6135909745241,14.5548140146668,295.));
#1460=CARTESIAN_POINT('',(34.6135909745241,14.5548140146668,300.));
#1461=CARTESIAN_POINT('Origin',(34.463590974524,14.8146216358021,300.));
#1462=CARTESIAN_POINT('',(34.7533687224107,14.7369759222714,295.));
#1463=CARTESIAN_POINT('Origin',(34.463590974524,14.8146216358021,295.));
#1464=CARTESIAN_POINT('',(34.7533687224107,14.7369759222714,300.));
#1465=CARTESIAN_POINT('Origin',(35.5612258731899,17.7519398542372,300.));
#1466=CARTESIAN_POINT('',(35.5612258731899,17.7519398542372,295.));
#1467=CARTESIAN_POINT('',(35.5612258731899,17.7519398542372,295.));
#1468=CARTESIAN_POINT('',(35.5612258731899,17.7519398542372,300.));
#1469=CARTESIAN_POINT('Origin',(35.2714481253032,17.8295855677679,300.));
#1470=CARTESIAN_POINT('Origin',(35.2714481253032,17.8295855677679,295.));
#1471=CARTESIAN_POINT('Origin',(30.8227241335952,18.4283338500856,295.));
#1472=CARTESIAN_POINT('',(32.4277583294629,19.3550007751284,297.5));
#1473=UNCERTAINTY_MEASURE_WITH_UNIT(LENGTH_MEASURE(0.01),#1479,
'DISTANCE_ACCURACY_VALUE',
'Maximum model space distance between geometric entities at asserted c
onnectivities');
#1474=UNCERTAINTY_MEASURE_WITH_UNIT(LENGTH_MEASURE(0.01),#1479,
'DISTANCE_ACCURACY_VALUE',
'Maximum model space distance between geometric entities at asserted c
onnectivities');
#1475=UNCERTAINTY_MEASURE_WITH_UNIT(LENGTH_MEASURE(0.01),#1479,
'DISTANCE_ACCURACY_VALUE',
'Maximum model space distance between geometric entities at asserted c
onnectivities');
#1476=(
GEOMETRIC_REPRESENTATION_CONTEXT(3)
GLOBAL_UNCERTAINTY_ASSIGNED_CONTEXT((#1473))
GLOBAL_UNIT_ASSIGNED_CONTEXT((#1479,#1481,#1482))
REPRESENTATION_CONTEXT('','3D')
);
#1477=(
GEOMETRIC_REPRESENTATION_CONTEXT(3)
GLOBAL_UNCERTAINTY_ASSIGNED_CONTEXT((#1474))
GLOBAL_UNIT_ASSIGNED_CONTEXT((#1479,#1481,#1482))
REPRESENTATION_CONTEXT('','3D')
);
#1478=(
GEOMETRIC_REPRESENTATION_CONTEXT(3)
GLOBAL_UNCERTAINTY_ASSIGNED_CONTEXT((#1475))
GLOBAL_UNIT_ASSIGNED_CONTEXT((#1479,#1481,#1482))
REPRESENTATION_CONTEXT('','3D')
);
#1479=(
LENGTH_UNIT()
NAMED_UNIT(*)
SI_UNIT(.MILLI.,.METRE.)
);
#1480=(
LENGTH_UNIT()
NAMED_UNIT(*)
SI_UNIT($,.METRE.)
);
#1481=(
NAMED_UNIT(*)
PLANE_ANGLE_UNIT()
SI_UNIT($,.RADIAN.)
);
#1482=(
NAMED_UNIT(*)
SI_UNIT($,.STERADIAN.)
SOLID_ANGLE_UNIT()
);
#1483=SHAPE_DEFINITION_REPRESENTATION(#1485,#1488);
#1484=SHAPE_DEFINITION_REPRESENTATION(#1486,#1489);
#1485=PRODUCT_DEFINITION_SHAPE('',$,#1491);
#1486=PRODUCT_DEFINITION_SHAPE('',$,#1492);
#1487=PRODUCT_DEFINITION_SHAPE($,$,#14);
#1488=SHAPE_REPRESENTATION('',(#863,#946),#1476);
#1489=SHAPE_REPRESENTATION('',(#864),#1477);
#1490=PRODUCT_DEFINITION_CONTEXT('part definition',#1498,'design');
#1491=PRODUCT_DEFINITION('RailButton','RailButton v6',#1493,#1490);
#1492=PRODUCT_DEFINITION(
'BSHCS ANSI B18.3.1M - M2x0.4 x 8 Steel Grade 2 Plain',
'Broached Hexagon Socket Head Cap Screw ANSI B18.3.1M - M2x0.4 x 8 Ste
el Grade 2 Plain v1',#1494,#1490);
#1493=PRODUCT_DEFINITION_FORMATION('',$,#1500);
#1494=PRODUCT_DEFINITION_FORMATION('',$,#1501);
#1495=PRODUCT_RELATED_PRODUCT_CATEGORY('RailButton v6','RailButton v6',
(#1500));
#1496=PRODUCT_RELATED_PRODUCT_CATEGORY(
'Broached Hexagon Socket Head Cap Screw ANSI B18.3.1M - M2x0.4 x 8 Ste
el Grade 2 Plain v1',
'Broached Hexagon Socket Head Cap Screw ANSI B18.3.1M - M2x0.4 x 8 Ste
el Grade 2 Plain v1',(#1501));
#1497=APPLICATION_PROTOCOL_DEFINITION('international standard',
'automotive_design',2009,#1498);
#1498=APPLICATION_CONTEXT(
'Core Data for Automotive Mechanical Design Process');
#1499=PRODUCT_CONTEXT('part definition',#1498,'mechanical');
#1500=PRODUCT('RailButton','RailButton v6',$,(#1499));
#1501=PRODUCT('BSHCS ANSI B18.3.1M - M2x0.4 x 8 Steel Grade 2 Plain',
'Broached Hexagon Socket Head Cap Screw ANSI B18.3.1M - M2x0.4 x 8 Ste
el Grade 2 Plain v1',
'Broached Hexagon Socket Head Cap Screw ANSI B18.3.1M - M2x0.4 x 8',(#1499));
#1502=PRESENTATION_STYLE_ASSIGNMENT((#1503));
#1503=SURFACE_STYLE_USAGE(.BOTH.,#1504);
#1504=SURFACE_SIDE_STYLE('',(#1505));
#1505=SURFACE_STYLE_FILL_AREA(#1506);
#1506=FILL_AREA_STYLE('Steel - Satin',(#1507));
#1507=FILL_AREA_STYLE_COLOUR('Steel - Satin',#1508);
#1508=COLOUR_RGB('Steel - Satin',0.627450980392157,0.627450980392157,0.627450980392157);
ENDSEC;
END-ISO-10303-21;
